<mxfile host="app.diagrams.net" modified="2021-03-15T15:07:27.730Z" agent="5.0 (Windows NT 10.0; Win64; x64) AppleWebKit/537.36 (KHTML, like Gecko) Chrome/89.0.4389.82 Safari/537.36" etag="dfiUTKpIk2kHdYskhnOL" version="14.4.7" type="github" pages="15">
  <diagram id="DUdnFjdVVWtOckwhPBe0" name="Page-1">
    <mxGraphModel dx="2077" dy="765" grid="1" gridSize="10" guides="1" tooltips="1" connect="1" arrows="1" fold="1" page="1" pageScale="1" pageWidth="850" pageHeight="1100" math="0" shadow="0">
      <root>
        <mxCell id="0" />
        <mxCell id="1" parent="0" />
        <mxCell id="VcjfiFbtgc9mVTu1lVr2-1" value="" style="strokeWidth=1;shadow=0;dashed=0;align=center;html=1;shape=mxgraph.mockup.containers.browserWindow;rSize=0;strokeColor=#666666;strokeColor2=#008cff;strokeColor3=#c4c4c4;mainText=,;recursiveResize=0;" parent="1" vertex="1">
          <mxGeometry x="40" y="410" width="790" height="590" as="geometry" />
        </mxCell>
        <mxCell id="VcjfiFbtgc9mVTu1lVr2-2" value="Page 1" style="strokeWidth=1;shadow=0;dashed=0;align=center;html=1;shape=mxgraph.mockup.containers.anchor;fontSize=17;fontColor=#666666;align=left;" parent="VcjfiFbtgc9mVTu1lVr2-1" vertex="1">
          <mxGeometry x="60" y="12" width="110" height="26" as="geometry" />
        </mxCell>
        <mxCell id="VcjfiFbtgc9mVTu1lVr2-3" value="https://www.draw.io" style="strokeWidth=1;shadow=0;dashed=0;align=center;html=1;shape=mxgraph.mockup.containers.anchor;rSize=0;fontSize=17;fontColor=#666666;align=left;" parent="VcjfiFbtgc9mVTu1lVr2-1" vertex="1">
          <mxGeometry x="130" y="60" width="250" height="26" as="geometry" />
        </mxCell>
        <mxCell id="VcjfiFbtgc9mVTu1lVr2-4" value="" style="rounded=1;whiteSpace=wrap;html=1;" parent="VcjfiFbtgc9mVTu1lVr2-1" vertex="1">
          <mxGeometry x="253" y="210" width="265" height="220" as="geometry" />
        </mxCell>
        <mxCell id="VcjfiFbtgc9mVTu1lVr2-6" value="Student" style="strokeWidth=1;shadow=0;dashed=0;align=center;html=1;shape=mxgraph.mockup.buttons.button;strokeColor=#666666;mainText=;buttonStyle=round;fontSize=17;fontStyle=1;whiteSpace=wrap;fillColor=#FFFFFF;" parent="VcjfiFbtgc9mVTu1lVr2-1" vertex="1">
          <mxGeometry x="310.5" y="270" width="150" height="50" as="geometry" />
        </mxCell>
        <mxCell id="VcjfiFbtgc9mVTu1lVr2-7" value="Teacher" style="strokeWidth=1;shadow=0;dashed=0;align=center;html=1;shape=mxgraph.mockup.buttons.button;strokeColor=#666666;mainText=;buttonStyle=round;fontSize=17;fontStyle=1;whiteSpace=wrap;fillColor=#FFFFFF;" parent="VcjfiFbtgc9mVTu1lVr2-1" vertex="1">
          <mxGeometry x="310" y="340" width="150" height="50" as="geometry" />
        </mxCell>
        <mxCell id="VcjfiFbtgc9mVTu1lVr2-8" value="&lt;font style=&quot;font-size: 20px&quot;&gt;Who are you?&lt;/font&gt;" style="text;html=1;strokeColor=none;fillColor=none;align=center;verticalAlign=middle;whiteSpace=wrap;rounded=0;fontColor=#000000;" parent="VcjfiFbtgc9mVTu1lVr2-1" vertex="1">
          <mxGeometry x="311" y="230" width="149" height="20" as="geometry" />
        </mxCell>
      </root>
    </mxGraphModel>
  </diagram>
  <diagram id="EC6KGFmhJ7q8Vprj_Q3c" name="login (teacher)">
    <mxGraphModel dx="1246" dy="459" grid="1" gridSize="10" guides="1" tooltips="1" connect="1" arrows="1" fold="1" page="1" pageScale="1" pageWidth="850" pageHeight="1100" math="0" shadow="0">
      <root>
        <mxCell id="Fy1jiFFCZcnhIIXUAdRw-0" />
        <mxCell id="Fy1jiFFCZcnhIIXUAdRw-1" parent="Fy1jiFFCZcnhIIXUAdRw-0" />
        <mxCell id="RGOyCAIiafMy42ffk4cB-0" value="" style="strokeWidth=1;shadow=0;dashed=0;align=center;html=1;shape=mxgraph.mockup.containers.browserWindow;rSize=0;strokeColor=#666666;strokeColor2=#008cff;strokeColor3=#c4c4c4;mainText=,;recursiveResize=0;" parent="Fy1jiFFCZcnhIIXUAdRw-1" vertex="1">
          <mxGeometry x="20" y="250" width="810" height="650" as="geometry" />
        </mxCell>
        <mxCell id="RGOyCAIiafMy42ffk4cB-1" value="Page 1" style="strokeWidth=1;shadow=0;dashed=0;align=center;html=1;shape=mxgraph.mockup.containers.anchor;fontSize=17;fontColor=#666666;align=left;" parent="RGOyCAIiafMy42ffk4cB-0" vertex="1">
          <mxGeometry x="60" y="12" width="110" height="26" as="geometry" />
        </mxCell>
        <mxCell id="RGOyCAIiafMy42ffk4cB-2" value="https://www.../teacher/login" style="strokeWidth=1;shadow=0;dashed=0;align=center;html=1;shape=mxgraph.mockup.containers.anchor;rSize=0;fontSize=17;fontColor=#666666;align=left;" parent="RGOyCAIiafMy42ffk4cB-0" vertex="1">
          <mxGeometry x="130" y="60" width="250" height="26" as="geometry" />
        </mxCell>
        <mxCell id="6Zv3or1wNurKheIdRFV6-0" value="" style="rounded=1;whiteSpace=wrap;html=1;" parent="RGOyCAIiafMy42ffk4cB-0" vertex="1">
          <mxGeometry x="257" y="160" width="297" height="450" as="geometry" />
        </mxCell>
        <mxCell id="6Zv3or1wNurKheIdRFV6-1" value="&lt;span style=&quot;color: rgb(0 , 0 , 0) ; font-size: 20px ; font-weight: 400&quot;&gt;Username&lt;/span&gt;" style="fillColor=none;strokeColor=none;html=1;fontSize=11;fontStyle=0;align=left;fontColor=#596780;fontStyle=1;fontSize=11" parent="RGOyCAIiafMy42ffk4cB-0" vertex="1">
          <mxGeometry x="289.5" y="190" width="240" height="20" as="geometry" />
        </mxCell>
        <mxCell id="6Zv3or1wNurKheIdRFV6-2" value="" style="rounded=1;arcSize=9;align=left;spacingLeft=5;html=1;strokeWidth=2;fontSize=12;fillColor=#FFFFFF;" parent="RGOyCAIiafMy42ffk4cB-0" vertex="1">
          <mxGeometry x="289.5" y="227.5" width="232" height="35" as="geometry" />
        </mxCell>
        <mxCell id="6Zv3or1wNurKheIdRFV6-3" value="&lt;span style=&quot;color: rgb(0 , 0 , 0) ; font-size: 20px ; font-weight: 400&quot;&gt;Password&lt;/span&gt;" style="fillColor=none;strokeColor=none;html=1;fontSize=11;fontStyle=0;align=left;fontColor=#596780;fontStyle=1;fontSize=11" parent="RGOyCAIiafMy42ffk4cB-0" vertex="1">
          <mxGeometry x="289.5" y="300" width="240" height="20" as="geometry" />
        </mxCell>
        <mxCell id="6Zv3or1wNurKheIdRFV6-4" value="" style="rounded=1;arcSize=9;align=left;spacingLeft=5;html=1;strokeWidth=2;fontSize=12;fillColor=#FFFFFF;" parent="RGOyCAIiafMy42ffk4cB-0" vertex="1">
          <mxGeometry x="290" y="340" width="232" height="35" as="geometry" />
        </mxCell>
        <mxCell id="6Zv3or1wNurKheIdRFV6-5" value="Log In" style="strokeWidth=1;shadow=0;dashed=0;align=center;html=1;shape=mxgraph.mockup.buttons.button;mainText=;buttonStyle=round;fontSize=17;fontStyle=1;whiteSpace=wrap;" parent="RGOyCAIiafMy42ffk4cB-0" vertex="1">
          <mxGeometry x="288.75" y="430" width="234.5" height="40" as="geometry" />
        </mxCell>
        <mxCell id="6Zv3or1wNurKheIdRFV6-6" value="&lt;font style=&quot;font-size: 14px&quot;&gt;&lt;u&gt;Forgot password?&lt;/u&gt;&lt;/font&gt;" style="text;html=1;strokeColor=none;fillColor=none;align=left;verticalAlign=middle;whiteSpace=wrap;rounded=0;fontColor=#000000;" parent="RGOyCAIiafMy42ffk4cB-0" vertex="1">
          <mxGeometry x="290" y="390" width="154" height="20" as="geometry" />
        </mxCell>
        <mxCell id="6Zv3or1wNurKheIdRFV6-7" value="Sign Up" style="strokeWidth=1;shadow=0;dashed=0;align=center;html=1;shape=mxgraph.mockup.buttons.button;mainText=;buttonStyle=round;fontSize=17;fontStyle=1;whiteSpace=wrap;" parent="RGOyCAIiafMy42ffk4cB-0" vertex="1">
          <mxGeometry x="290" y="480" width="234" height="40" as="geometry" />
        </mxCell>
        <mxCell id="6Zv3or1wNurKheIdRFV6-8" value="Log in with Google" style="strokeWidth=1;shadow=0;dashed=0;align=center;html=1;shape=mxgraph.mockup.buttons.button;mainText=;buttonStyle=round;fontSize=17;fontStyle=1;whiteSpace=wrap;" parent="RGOyCAIiafMy42ffk4cB-0" vertex="1">
          <mxGeometry x="292" y="530" width="232" height="40" as="geometry" />
        </mxCell>
      </root>
    </mxGraphModel>
  </diagram>
  <diagram id="-ZzPZSTZEbUaUH8PVy1w" name="sign up (teacher)">
    <mxGraphModel dx="1246" dy="459" grid="1" gridSize="10" guides="1" tooltips="1" connect="1" arrows="1" fold="1" page="1" pageScale="1" pageWidth="850" pageHeight="1100" math="0" shadow="0">
      <root>
        <mxCell id="qHOokK0UEwL4Asx7rJWo-0" />
        <mxCell id="qHOokK0UEwL4Asx7rJWo-1" parent="qHOokK0UEwL4Asx7rJWo-0" />
        <mxCell id="1mmVkPA-66OKf_sYqtR9-0" value="" style="strokeWidth=1;shadow=0;dashed=0;align=center;html=1;shape=mxgraph.mockup.containers.browserWindow;rSize=0;strokeColor=#666666;strokeColor2=#008cff;strokeColor3=#c4c4c4;mainText=,;recursiveResize=0;" parent="qHOokK0UEwL4Asx7rJWo-1" vertex="1">
          <mxGeometry x="10" y="240" width="840" height="790" as="geometry" />
        </mxCell>
        <mxCell id="1mmVkPA-66OKf_sYqtR9-1" value="Page 1" style="strokeWidth=1;shadow=0;dashed=0;align=center;html=1;shape=mxgraph.mockup.containers.anchor;fontSize=17;fontColor=#666666;align=left;" parent="1mmVkPA-66OKf_sYqtR9-0" vertex="1">
          <mxGeometry x="60" y="12" width="110" height="26" as="geometry" />
        </mxCell>
        <mxCell id="1mmVkPA-66OKf_sYqtR9-2" value="https://www..../teacher/register" style="strokeWidth=1;shadow=0;dashed=0;align=center;html=1;shape=mxgraph.mockup.containers.anchor;rSize=0;fontSize=17;fontColor=#666666;align=left;" parent="1mmVkPA-66OKf_sYqtR9-0" vertex="1">
          <mxGeometry x="130" y="60" width="250" height="26" as="geometry" />
        </mxCell>
        <mxCell id="1mmVkPA-66OKf_sYqtR9-3" value="" style="rounded=1;whiteSpace=wrap;html=1;" parent="1mmVkPA-66OKf_sYqtR9-0" vertex="1">
          <mxGeometry x="118.5" y="170" width="583" height="510" as="geometry" />
        </mxCell>
        <mxCell id="1mmVkPA-66OKf_sYqtR9-4" value="&lt;span style=&quot;color: rgb(0 , 0 , 0) ; font-size: 20px ; font-weight: 400&quot;&gt;First Name&lt;/span&gt;" style="fillColor=none;strokeColor=none;html=1;fontSize=11;fontStyle=0;align=left;fontColor=#596780;fontStyle=1;fontSize=11" parent="1mmVkPA-66OKf_sYqtR9-0" vertex="1">
          <mxGeometry x="180" y="200" width="240" height="20" as="geometry" />
        </mxCell>
        <mxCell id="1mmVkPA-66OKf_sYqtR9-5" value="" style="rounded=1;arcSize=9;align=left;spacingLeft=5;html=1;strokeWidth=2;fontSize=12;fillColor=#FFFFFF;" parent="1mmVkPA-66OKf_sYqtR9-0" vertex="1">
          <mxGeometry x="180" y="240" width="190" height="35" as="geometry" />
        </mxCell>
        <mxCell id="1mmVkPA-66OKf_sYqtR9-6" value="&lt;span style=&quot;color: rgb(0 , 0 , 0) ; font-size: 20px ; font-weight: 400&quot;&gt;Last Name&lt;/span&gt;" style="fillColor=none;strokeColor=none;html=1;fontSize=11;fontStyle=0;align=left;fontColor=#596780;fontStyle=1;fontSize=11" parent="1mmVkPA-66OKf_sYqtR9-0" vertex="1">
          <mxGeometry x="440" y="200" width="240" height="20" as="geometry" />
        </mxCell>
        <mxCell id="1mmVkPA-66OKf_sYqtR9-7" value="" style="rounded=1;arcSize=9;align=left;spacingLeft=5;html=1;strokeWidth=2;fontSize=12;fillColor=#FFFFFF;" parent="1mmVkPA-66OKf_sYqtR9-0" vertex="1">
          <mxGeometry x="440" y="240" width="210" height="35" as="geometry" />
        </mxCell>
        <mxCell id="1mmVkPA-66OKf_sYqtR9-10" value="Sign Up" style="strokeWidth=1;shadow=0;dashed=0;align=center;html=1;shape=mxgraph.mockup.buttons.button;mainText=;buttonStyle=round;fontSize=17;fontStyle=1;whiteSpace=wrap;" parent="1mmVkPA-66OKf_sYqtR9-0" vertex="1">
          <mxGeometry x="180" y="580" width="470" height="40" as="geometry" />
        </mxCell>
        <mxCell id="1mmVkPA-66OKf_sYqtR9-12" value="&lt;font style=&quot;font-size: 20px ; font-weight: normal&quot; color=&quot;#000000&quot;&gt;Email&lt;/font&gt;" style="fillColor=none;strokeColor=none;html=1;fontSize=11;fontStyle=0;align=left;fontColor=#596780;fontStyle=1;fontSize=11" parent="1mmVkPA-66OKf_sYqtR9-0" vertex="1">
          <mxGeometry x="180" y="320" width="240" height="20" as="geometry" />
        </mxCell>
        <mxCell id="1mmVkPA-66OKf_sYqtR9-13" value="" style="rounded=1;arcSize=9;align=left;spacingLeft=5;html=1;strokeWidth=2;fontSize=12;" parent="1mmVkPA-66OKf_sYqtR9-0" vertex="1">
          <mxGeometry x="180" y="360" width="470" height="40" as="geometry" />
        </mxCell>
        <mxCell id="1mmVkPA-66OKf_sYqtR9-14" value="&lt;font style=&quot;font-size: 20px ; font-weight: normal&quot; color=&quot;#000000&quot;&gt;Password&lt;/font&gt;" style="fillColor=none;strokeColor=none;html=1;fontSize=11;fontStyle=0;align=left;fontColor=#596780;fontStyle=1;fontSize=11" parent="1mmVkPA-66OKf_sYqtR9-0" vertex="1">
          <mxGeometry x="180" y="440" width="240" height="20" as="geometry" />
        </mxCell>
        <mxCell id="1mmVkPA-66OKf_sYqtR9-15" value="" style="rounded=1;arcSize=9;align=left;spacingLeft=5;html=1;strokeWidth=2;fontSize=12;" parent="1mmVkPA-66OKf_sYqtR9-0" vertex="1">
          <mxGeometry x="180" y="480" width="190" height="40" as="geometry" />
        </mxCell>
        <mxCell id="1mmVkPA-66OKf_sYqtR9-18" value="&lt;font style=&quot;font-size: 20px ; font-weight: normal&quot; color=&quot;#000000&quot;&gt;Confirm Password&lt;/font&gt;" style="fillColor=none;strokeColor=none;html=1;fontSize=11;fontStyle=0;align=left;fontColor=#596780;fontStyle=1;fontSize=11" parent="1mmVkPA-66OKf_sYqtR9-0" vertex="1">
          <mxGeometry x="440" y="440" width="240" height="20" as="geometry" />
        </mxCell>
        <mxCell id="1mmVkPA-66OKf_sYqtR9-19" value="" style="rounded=1;arcSize=9;align=left;spacingLeft=5;html=1;strokeWidth=2;fontSize=12;" parent="1mmVkPA-66OKf_sYqtR9-0" vertex="1">
          <mxGeometry x="440" y="480" width="210" height="40" as="geometry" />
        </mxCell>
      </root>
    </mxGraphModel>
  </diagram>
  <diagram id="i2E73B9SzaYJl9xCti04" name="forgot password (teacher)">
    <mxGraphModel dx="1246" dy="459" grid="1" gridSize="10" guides="1" tooltips="1" connect="1" arrows="1" fold="1" page="1" pageScale="1" pageWidth="850" pageHeight="1100" math="0" shadow="0">
      <root>
        <mxCell id="vsYtDyOCOvzfABi6gwAz-0" />
        <mxCell id="vsYtDyOCOvzfABi6gwAz-1" parent="vsYtDyOCOvzfABi6gwAz-0" />
        <mxCell id="vsYtDyOCOvzfABi6gwAz-2" value="" style="strokeWidth=1;shadow=0;dashed=0;align=center;html=1;shape=mxgraph.mockup.containers.browserWindow;rSize=0;strokeColor=#666666;strokeColor2=#008cff;strokeColor3=#c4c4c4;mainText=,;recursiveResize=0;fillColor=#FFFFFF;fontColor=#000000;" parent="vsYtDyOCOvzfABi6gwAz-1" vertex="1">
          <mxGeometry y="70" width="830" height="630" as="geometry" />
        </mxCell>
        <mxCell id="vsYtDyOCOvzfABi6gwAz-3" value="Page 1" style="strokeWidth=1;shadow=0;dashed=0;align=center;html=1;shape=mxgraph.mockup.containers.anchor;fontSize=17;fontColor=#666666;align=left;" parent="vsYtDyOCOvzfABi6gwAz-2" vertex="1">
          <mxGeometry x="60" y="12" width="110" height="26" as="geometry" />
        </mxCell>
        <mxCell id="vsYtDyOCOvzfABi6gwAz-4" value="https://www..../teacher/forgotpassword" style="strokeWidth=1;shadow=0;dashed=0;align=center;html=1;shape=mxgraph.mockup.containers.anchor;rSize=0;fontSize=17;fontColor=#666666;align=left;" parent="vsYtDyOCOvzfABi6gwAz-2" vertex="1">
          <mxGeometry x="130" y="60" width="250" height="26" as="geometry" />
        </mxCell>
        <mxCell id="mUsIzLyi0lT7sXhow9Ti-0" value="" style="rounded=1;whiteSpace=wrap;html=1;" parent="vsYtDyOCOvzfABi6gwAz-2" vertex="1">
          <mxGeometry x="267" y="260" width="297" height="220" as="geometry" />
        </mxCell>
        <mxCell id="mUsIzLyi0lT7sXhow9Ti-1" value="&lt;span style=&quot;color: rgb(0 , 0 , 0) ; font-size: 20px ; font-weight: 400&quot;&gt;Enter your email&lt;/span&gt;" style="fillColor=none;strokeColor=none;html=1;fontSize=11;fontStyle=0;align=left;fontColor=#596780;fontStyle=1;fontSize=11" parent="vsYtDyOCOvzfABi6gwAz-2" vertex="1">
          <mxGeometry x="299" y="290" width="240" height="20" as="geometry" />
        </mxCell>
        <mxCell id="mUsIzLyi0lT7sXhow9Ti-2" value="" style="rounded=1;arcSize=9;align=left;spacingLeft=5;html=1;strokeWidth=2;fontSize=12;fillColor=#FFFFFF;" parent="vsYtDyOCOvzfABi6gwAz-2" vertex="1">
          <mxGeometry x="299" y="340" width="232" height="35" as="geometry" />
        </mxCell>
        <mxCell id="_SH8-LKNXnZKEn58K3RB-0" value="Sent code" style="strokeWidth=1;shadow=0;dashed=0;align=center;html=1;shape=mxgraph.mockup.buttons.button;mainText=;buttonStyle=round;fontSize=17;fontStyle=1;whiteSpace=wrap;" parent="vsYtDyOCOvzfABi6gwAz-2" vertex="1">
          <mxGeometry x="299" y="400" width="231" height="40" as="geometry" />
        </mxCell>
      </root>
    </mxGraphModel>
  </diagram>
  <diagram id="xwUOnXvk_T1T9CkQXExS" name="login (students)">
    <mxGraphModel dx="1246" dy="459" grid="1" gridSize="10" guides="1" tooltips="1" connect="1" arrows="1" fold="1" page="1" pageScale="1" pageWidth="850" pageHeight="1100" math="0" shadow="0">
      <root>
        <mxCell id="kUVly6_JgBsp5l7gmDTB-0" />
        <mxCell id="kUVly6_JgBsp5l7gmDTB-1" parent="kUVly6_JgBsp5l7gmDTB-0" />
        <mxCell id="Pz_RpVJmgaNNTcU_AckH-0" value="" style="strokeWidth=1;shadow=0;dashed=0;align=center;html=1;shape=mxgraph.mockup.containers.browserWindow;rSize=0;strokeColor=#666666;strokeColor2=#008cff;strokeColor3=#c4c4c4;mainText=,;recursiveResize=0;" parent="kUVly6_JgBsp5l7gmDTB-1" vertex="1">
          <mxGeometry x="40" y="410" width="790" height="590" as="geometry" />
        </mxCell>
        <mxCell id="Pz_RpVJmgaNNTcU_AckH-1" value="Page 1" style="strokeWidth=1;shadow=0;dashed=0;align=center;html=1;shape=mxgraph.mockup.containers.anchor;fontSize=17;fontColor=#666666;align=left;" parent="Pz_RpVJmgaNNTcU_AckH-0" vertex="1">
          <mxGeometry x="60" y="12" width="110" height="26" as="geometry" />
        </mxCell>
        <mxCell id="Pz_RpVJmgaNNTcU_AckH-2" value="https://www..../student/login" style="strokeWidth=1;shadow=0;dashed=0;align=center;html=1;shape=mxgraph.mockup.containers.anchor;rSize=0;fontSize=17;fontColor=#666666;align=left;" parent="Pz_RpVJmgaNNTcU_AckH-0" vertex="1">
          <mxGeometry x="130" y="60" width="250" height="26" as="geometry" />
        </mxCell>
        <mxCell id="Pz_RpVJmgaNNTcU_AckH-3" value="" style="rounded=1;whiteSpace=wrap;html=1;" parent="Pz_RpVJmgaNNTcU_AckH-0" vertex="1">
          <mxGeometry x="253" y="210" width="297" height="260" as="geometry" />
        </mxCell>
        <mxCell id="Pz_RpVJmgaNNTcU_AckH-8" value="&lt;span style=&quot;color: rgb(0 , 0 , 0) ; font-size: 20px ; font-weight: 400&quot;&gt;Student ID&lt;/span&gt;" style="fillColor=none;strokeColor=none;html=1;fontSize=11;fontStyle=0;align=left;fontColor=#596780;fontStyle=1;fontSize=11" parent="Pz_RpVJmgaNNTcU_AckH-0" vertex="1">
          <mxGeometry x="285.5" y="240" width="240" height="20" as="geometry" />
        </mxCell>
        <mxCell id="Pz_RpVJmgaNNTcU_AckH-9" value="" style="rounded=1;arcSize=9;align=left;spacingLeft=5;html=1;strokeWidth=2;fontSize=12;fillColor=#FFFFFF;" parent="Pz_RpVJmgaNNTcU_AckH-0" vertex="1">
          <mxGeometry x="285.5" y="277.5" width="232" height="35" as="geometry" />
        </mxCell>
        <mxCell id="Pz_RpVJmgaNNTcU_AckH-10" value="&lt;span style=&quot;color: rgb(0 , 0 , 0) ; font-size: 20px ; font-weight: 400&quot;&gt;Test ID&lt;/span&gt;" style="fillColor=none;strokeColor=none;html=1;fontSize=11;fontStyle=0;align=left;fontColor=#596780;fontStyle=1;fontSize=11" parent="Pz_RpVJmgaNNTcU_AckH-0" vertex="1">
          <mxGeometry x="285.5" y="350" width="240" height="20" as="geometry" />
        </mxCell>
        <mxCell id="Pz_RpVJmgaNNTcU_AckH-11" value="" style="rounded=1;arcSize=9;align=left;spacingLeft=5;html=1;strokeWidth=2;fontSize=12;fillColor=#FFFFFF;" parent="Pz_RpVJmgaNNTcU_AckH-0" vertex="1">
          <mxGeometry x="286" y="390" width="232" height="35" as="geometry" />
        </mxCell>
      </root>
    </mxGraphModel>
  </diagram>
  <diagram id="AeJdqwXOE7T2P9J2sKWo" name="test library (teacher)">
    <mxGraphModel dx="1246" dy="459" grid="1" gridSize="10" guides="1" tooltips="1" connect="1" arrows="1" fold="1" page="1" pageScale="1" pageWidth="850" pageHeight="1100" math="0" shadow="0">
      <root>
        <mxCell id="_5dXiN8_H0o1Hb8W8yED-0" />
        <mxCell id="_5dXiN8_H0o1Hb8W8yED-1" parent="_5dXiN8_H0o1Hb8W8yED-0" />
        <mxCell id="YogZrPip3gEKml8mYCJP-0" value="" style="strokeWidth=1;shadow=0;dashed=0;align=left;html=1;shape=mxgraph.mockup.containers.browserWindow;rSize=0;strokeColor=#666666;strokeColor2=#008cff;strokeColor3=#c4c4c4;mainText=,;recursiveResize=0;fillColor=#FFFFFF;fontColor=#000000;" parent="_5dXiN8_H0o1Hb8W8yED-1" vertex="1">
          <mxGeometry x="15" y="250" width="820" height="580" as="geometry" />
        </mxCell>
        <mxCell id="YogZrPip3gEKml8mYCJP-1" value="Page 1" style="strokeWidth=1;shadow=0;dashed=0;align=center;html=1;shape=mxgraph.mockup.containers.anchor;fontSize=17;fontColor=#666666;align=left;" parent="YogZrPip3gEKml8mYCJP-0" vertex="1">
          <mxGeometry x="60" y="12" width="110" height="26" as="geometry" />
        </mxCell>
        <mxCell id="YogZrPip3gEKml8mYCJP-2" value="https://www..../teacher/#testlibrary" style="strokeWidth=1;shadow=0;dashed=0;align=center;html=1;shape=mxgraph.mockup.containers.anchor;rSize=0;fontSize=17;fontColor=#666666;align=left;" parent="YogZrPip3gEKml8mYCJP-0" vertex="1">
          <mxGeometry x="130" y="60" width="250" height="26" as="geometry" />
        </mxCell>
        <mxCell id="YogZrPip3gEKml8mYCJP-3" value="" style="rounded=0;whiteSpace=wrap;html=1;strokeColor=#000000;fillColor=#FFFFFF;fontColor=#000000;align=left;" parent="YogZrPip3gEKml8mYCJP-0" vertex="1">
          <mxGeometry y="110" width="140" height="470" as="geometry" />
        </mxCell>
        <mxCell id="YogZrPip3gEKml8mYCJP-4" value="avatar" style="ellipse;whiteSpace=wrap;html=1;aspect=fixed;strokeColor=#000000;fillColor=#FFFFFF;fontColor=#000000;align=center;" parent="YogZrPip3gEKml8mYCJP-0" vertex="1">
          <mxGeometry x="40" y="120" width="60" height="60" as="geometry" />
        </mxCell>
        <mxCell id="YogZrPip3gEKml8mYCJP-5" value="Name" style="text;html=1;strokeColor=none;fillColor=none;align=center;verticalAlign=middle;whiteSpace=wrap;rounded=0;fontColor=#000000;" parent="YogZrPip3gEKml8mYCJP-0" vertex="1">
          <mxGeometry x="50" y="190" width="40" height="20" as="geometry" />
        </mxCell>
        <mxCell id="YogZrPip3gEKml8mYCJP-6" value="Student List" style="rounded=0;whiteSpace=wrap;html=1;align=center;" parent="YogZrPip3gEKml8mYCJP-0" vertex="1">
          <mxGeometry y="320" width="140" height="60" as="geometry" />
        </mxCell>
        <mxCell id="YogZrPip3gEKml8mYCJP-7" value="Test A" style="rounded=0;whiteSpace=wrap;html=1;strokeColor=#000000;fillColor=#FFFFFF;fontColor=#000000;align=center;" parent="YogZrPip3gEKml8mYCJP-0" vertex="1">
          <mxGeometry x="195" y="140" width="145" height="130" as="geometry" />
        </mxCell>
        <mxCell id="YogZrPip3gEKml8mYCJP-8" value="Test B" style="rounded=0;whiteSpace=wrap;html=1;strokeColor=#000000;fillColor=#FFFFFF;fontColor=#000000;align=center;" parent="YogZrPip3gEKml8mYCJP-0" vertex="1">
          <mxGeometry x="405" y="140" width="150" height="130" as="geometry" />
        </mxCell>
        <mxCell id="YogZrPip3gEKml8mYCJP-9" value="Test C" style="rounded=0;whiteSpace=wrap;html=1;strokeColor=#000000;fillColor=#FFFFFF;fontColor=#000000;align=center;" parent="YogZrPip3gEKml8mYCJP-0" vertex="1">
          <mxGeometry x="625" y="140" width="145" height="130" as="geometry" />
        </mxCell>
        <mxCell id="YogZrPip3gEKml8mYCJP-10" value="+ Add Test" style="rounded=0;whiteSpace=wrap;html=1;strokeColor=#000000;fillColor=#FFFFFF;fontColor=#000000;align=center;" parent="YogZrPip3gEKml8mYCJP-0" vertex="1">
          <mxGeometry x="195" y="340" width="145" height="140" as="geometry" />
        </mxCell>
        <mxCell id="YogZrPip3gEKml8mYCJP-11" value="Test Library" style="rounded=0;whiteSpace=wrap;html=1;align=center;fillColor=#f8cecc;strokeColor=#b85450;" parent="YogZrPip3gEKml8mYCJP-0" vertex="1">
          <mxGeometry y="260" width="140" height="60" as="geometry" />
        </mxCell>
      </root>
    </mxGraphModel>
  </diagram>
  <diagram id="-tYZVDosf31Q3u17X56o" name="test (teacher)">
    <mxGraphModel dx="1246" dy="459" grid="1" gridSize="10" guides="1" tooltips="1" connect="1" arrows="1" fold="1" page="1" pageScale="1" pageWidth="850" pageHeight="1100" math="0" shadow="0">
      <root>
        <mxCell id="ekV7CktjYJDg1CgGVT6_-0" />
        <mxCell id="ekV7CktjYJDg1CgGVT6_-1" parent="ekV7CktjYJDg1CgGVT6_-0" />
        <mxCell id="iAb2AMnUlWd71gTX872I-0" value="&#xa;&#xa;&lt;span style=&quot;color: rgb(0, 0, 0); font-family: helvetica; font-size: 12px; font-style: normal; font-weight: 400; letter-spacing: normal; text-align: center; text-indent: 0px; text-transform: none; word-spacing: 0px; background-color: rgb(248, 249, 250); display: inline; float: none;&quot;&gt;History&lt;/span&gt;&#xa;&#xa;" style="strokeWidth=1;shadow=0;dashed=0;align=left;html=1;shape=mxgraph.mockup.containers.browserWindow;rSize=0;strokeColor=#666666;strokeColor2=#008cff;strokeColor3=#c4c4c4;mainText=,;recursiveResize=0;fillColor=#FFFFFF;fontColor=#000000;" parent="ekV7CktjYJDg1CgGVT6_-1" vertex="1">
          <mxGeometry x="15" y="240" width="820" height="640" as="geometry" />
        </mxCell>
        <mxCell id="iAb2AMnUlWd71gTX872I-1" value="Page 1" style="strokeWidth=1;shadow=0;dashed=0;align=center;html=1;shape=mxgraph.mockup.containers.anchor;fontSize=17;fontColor=#666666;align=left;" parent="iAb2AMnUlWd71gTX872I-0" vertex="1">
          <mxGeometry x="60" y="12" width="110" height="26" as="geometry" />
        </mxCell>
        <mxCell id="iAb2AMnUlWd71gTX872I-2" value="https://www..../teacher/#testlibrary/testa" style="strokeWidth=1;shadow=0;dashed=0;align=center;html=1;shape=mxgraph.mockup.containers.anchor;rSize=0;fontSize=17;fontColor=#666666;align=left;" parent="iAb2AMnUlWd71gTX872I-0" vertex="1">
          <mxGeometry x="130" y="60" width="250" height="26" as="geometry" />
        </mxCell>
        <mxCell id="iAb2AMnUlWd71gTX872I-34" value="&#xa;&#xa;&lt;span style=&quot;color: rgb(0, 0, 0); font-family: helvetica; font-size: 12px; font-style: normal; font-weight: 400; letter-spacing: normal; text-align: center; text-indent: 0px; text-transform: none; word-spacing: 0px; background-color: rgb(248, 249, 250); display: inline; float: none;&quot;&gt;History&lt;/span&gt;&#xa;&#xa;" style="rounded=0;whiteSpace=wrap;html=1;strokeColor=#000000;fillColor=#FFFFFF;fontColor=#000000;align=left;" parent="iAb2AMnUlWd71gTX872I-0" vertex="1">
          <mxGeometry y="110" width="140" height="530" as="geometry" />
        </mxCell>
        <mxCell id="iAb2AMnUlWd71gTX872I-35" value="teacher.avatar" style="ellipse;whiteSpace=wrap;html=1;aspect=fixed;strokeColor=#000000;fillColor=#FFFFFF;fontColor=#000000;align=center;" parent="iAb2AMnUlWd71gTX872I-0" vertex="1">
          <mxGeometry x="40" y="120" width="60" height="60" as="geometry" />
        </mxCell>
        <mxCell id="iAb2AMnUlWd71gTX872I-36" value="teacher.teacherName" style="text;html=1;strokeColor=none;fillColor=none;align=center;verticalAlign=middle;whiteSpace=wrap;rounded=0;fontColor=#000000;" parent="iAb2AMnUlWd71gTX872I-0" vertex="1">
          <mxGeometry x="50" y="190" width="40" height="20" as="geometry" />
        </mxCell>
        <mxCell id="iAb2AMnUlWd71gTX872I-37" value="Student List" style="rounded=0;whiteSpace=wrap;html=1;align=center;" parent="iAb2AMnUlWd71gTX872I-0" vertex="1">
          <mxGeometry y="330" width="140" height="60" as="geometry" />
        </mxCell>
        <mxCell id="iAb2AMnUlWd71gTX872I-38" value="Test Library" style="rounded=0;whiteSpace=wrap;html=1;align=center;fillColor=#f8cecc;strokeColor=#b85450;" parent="iAb2AMnUlWd71gTX872I-0" vertex="1">
          <mxGeometry y="270" width="140" height="60" as="geometry" />
        </mxCell>
        <mxCell id="iAb2AMnUlWd71gTX872I-39" value="&lt;span style=&quot;font-size: 20px&quot;&gt;Test A&lt;/span&gt;" style="text;html=1;strokeColor=none;fillColor=none;align=center;verticalAlign=middle;whiteSpace=wrap;rounded=0;fontColor=#000000;fontStyle=1" parent="iAb2AMnUlWd71gTX872I-0" vertex="1">
          <mxGeometry x="170" y="130" width="85" height="20" as="geometry" />
        </mxCell>
        <mxCell id="iAb2AMnUlWd71gTX872I-41" value="Edit" style="strokeWidth=1;shadow=0;dashed=0;align=center;html=1;shape=mxgraph.mockup.buttons.button;mainText=;buttonStyle=round;fontSize=17;fontStyle=1;whiteSpace=wrap;" parent="iAb2AMnUlWd71gTX872I-0" vertex="1">
          <mxGeometry x="670" y="240" width="80" height="30" as="geometry" />
        </mxCell>
        <mxCell id="bgwReDebGuJfceUS-Q2n-0" value="" style="rounded=1;whiteSpace=wrap;html=1;strokeColor=#000000;fillColor=#FFFFFF;fontColor=#000000;align=center;" parent="iAb2AMnUlWd71gTX872I-0" vertex="1">
          <mxGeometry x="170" y="290" width="580" height="160" as="geometry" />
        </mxCell>
        <mxCell id="bgwReDebGuJfceUS-Q2n-2" value="Total: ... questions" style="text;html=1;strokeColor=none;fillColor=none;align=center;verticalAlign=middle;whiteSpace=wrap;rounded=0;fontColor=#000000;fontSize=14;" parent="iAb2AMnUlWd71gTX872I-0" vertex="1">
          <mxGeometry x="525" y="245" width="125" height="20" as="geometry" />
        </mxCell>
        <mxCell id="bgwReDebGuJfceUS-Q2n-5" value="question.description" style="fillColor=none;strokeColor=none;fontSize=14;fontStyle=1;align=left;" parent="iAb2AMnUlWd71gTX872I-0" vertex="1">
          <mxGeometry x="207" y="310" width="150" height="20" as="geometry" />
        </mxCell>
        <mxCell id="bgwReDebGuJfceUS-Q2n-6" value="A" style="rounded=1;fillColor=#F0F2F5;strokeColor=#D8DCE3;fontColor=#000000;align=left;verticalAlign=middle;fontStyle=0;fontSize=12;labelPosition=right;verticalLabelPosition=middle;spacingLeft=10;html=1;shadow=0;dashed=0;direction=north;arcSize=0;" parent="iAb2AMnUlWd71gTX872I-0" vertex="1">
          <mxGeometry x="205" y="350" width="12" height="12" as="geometry" />
        </mxCell>
        <mxCell id="bgwReDebGuJfceUS-Q2n-7" value="B" style="html=1;shadow=0;dashed=0;shape=mxgraph.atlassian.checkbox_2;fillColor=#0057D8;strokeColor=none;fontColor=#000000;align=left;verticalAlign=middle;fontStyle=0;fontSize=12;labelPosition=right;verticalLabelPosition=middle;spacingLeft=10" parent="iAb2AMnUlWd71gTX872I-0" vertex="1">
          <mxGeometry x="205" y="383.5" width="12" height="12" as="geometry" />
        </mxCell>
        <mxCell id="bgwReDebGuJfceUS-Q2n-8" value="C" style="html=1;shadow=0;dashed=0;shape=mxgraph.atlassian.checkbox_2;fillColor=#0057D8;strokeColor=none;fontColor=#000000;align=left;verticalAlign=middle;fontStyle=0;fontSize=12;labelPosition=right;verticalLabelPosition=middle;spacingLeft=10" parent="iAb2AMnUlWd71gTX872I-0" vertex="1">
          <mxGeometry x="205" y="416.5" width="12" height="12" as="geometry" />
        </mxCell>
        <mxCell id="bgwReDebGuJfceUS-Q2n-13" value="" style="rounded=1;whiteSpace=wrap;html=1;strokeColor=#000000;fillColor=#FFFFFF;fontColor=#000000;align=center;" parent="iAb2AMnUlWd71gTX872I-0" vertex="1">
          <mxGeometry x="170" y="460" width="580" height="160" as="geometry" />
        </mxCell>
        <mxCell id="bgwReDebGuJfceUS-Q2n-14" value="question.description" style="fillColor=none;strokeColor=none;fontSize=14;fontStyle=1;align=left;" parent="iAb2AMnUlWd71gTX872I-0" vertex="1">
          <mxGeometry x="205" y="480" width="150" height="20" as="geometry" />
        </mxCell>
        <mxCell id="bgwReDebGuJfceUS-Q2n-15" value="A" style="rounded=1;fillColor=#F0F2F5;strokeColor=#D8DCE3;fontColor=#000000;align=left;verticalAlign=middle;fontStyle=0;fontSize=12;labelPosition=right;verticalLabelPosition=middle;spacingLeft=10;html=1;shadow=0;dashed=0;direction=north;" parent="iAb2AMnUlWd71gTX872I-0" vertex="1">
          <mxGeometry x="205" y="520" width="12" height="12" as="geometry" />
        </mxCell>
        <mxCell id="bgwReDebGuJfceUS-Q2n-16" value="B" style="html=1;shadow=0;dashed=0;shape=mxgraph.atlassian.checkbox_2;fillColor=#0057D8;strokeColor=none;fontColor=#000000;align=left;verticalAlign=middle;fontStyle=0;fontSize=12;labelPosition=right;verticalLabelPosition=middle;spacingLeft=10" parent="iAb2AMnUlWd71gTX872I-0" vertex="1">
          <mxGeometry x="205" y="549" width="12" height="12" as="geometry" />
        </mxCell>
        <mxCell id="bgwReDebGuJfceUS-Q2n-17" value="C" style="html=1;shadow=0;dashed=0;shape=mxgraph.atlassian.checkbox_2;fillColor=#0057D8;strokeColor=none;fontColor=#000000;align=left;verticalAlign=middle;fontStyle=0;fontSize=12;labelPosition=right;verticalLabelPosition=middle;spacingLeft=10" parent="iAb2AMnUlWd71gTX872I-0" vertex="1">
          <mxGeometry x="205" y="580" width="12" height="12" as="geometry" />
        </mxCell>
        <mxCell id="bgwReDebGuJfceUS-Q2n-29" value="Class" style="rounded=1;fillColor=#253858;strokeColor=none;html=1;fontColor=#ffffff;align=left;fontSize=12;spacingLeft=10" parent="iAb2AMnUlWd71gTX872I-0" vertex="1">
          <mxGeometry x="645" y="133.5" width="105" height="33" as="geometry" />
        </mxCell>
        <mxCell id="bgwReDebGuJfceUS-Q2n-30" value="" style="shape=triangle;direction=south;fillColor=#ffffff;strokeColor=none;html=1" parent="bgwReDebGuJfceUS-Q2n-29" vertex="1">
          <mxGeometry x="1" y="0.5" width="12" height="6" relative="1" as="geometry">
            <mxPoint x="-20" y="-3" as="offset" />
          </mxGeometry>
        </mxCell>
        <mxCell id="bgwReDebGuJfceUS-Q2n-31" value="" style="rounded=1;fillColor=#ffffff;strokeColor=#DFE1E5;shadow=1;html=1;arcSize=4;fontSize=14;fontColor=#000000;align=center;" parent="iAb2AMnUlWd71gTX872I-0" vertex="1">
          <mxGeometry x="640" y="166.5" width="107.5" height="73.5" as="geometry" />
        </mxCell>
        <mxCell id="bgwReDebGuJfceUS-Q2n-32" value="A" style="rounded=0;fillColor=#F4F5F7;strokeColor=none;shadow=0;html=1;align=left;fontSize=12;spacingLeft=10;fontColor=#253858;resizeWidth=1" parent="bgwReDebGuJfceUS-Q2n-31" vertex="1">
          <mxGeometry width="107.5" height="33" relative="1" as="geometry">
            <mxPoint y="6" as="offset" />
          </mxGeometry>
        </mxCell>
        <mxCell id="bgwReDebGuJfceUS-Q2n-36" value="B" style="rounded=0;fillColor=#F4F5F7;strokeColor=none;shadow=0;html=1;align=left;fontSize=12;spacingLeft=10;fontColor=#253858;resizeWidth=1" parent="bgwReDebGuJfceUS-Q2n-31" vertex="1">
          <mxGeometry y="40.5" width="107.5" height="33" as="geometry" />
        </mxCell>
      </root>
    </mxGraphModel>
  </diagram>
  <diagram id="iF_sK1MteBGyCVbfXS-3" name="create test (teacher)">
    <mxGraphModel dx="1117" dy="624" grid="1" gridSize="10" guides="1" tooltips="1" connect="1" arrows="1" fold="1" page="1" pageScale="1" pageWidth="850" pageHeight="1100" math="0" shadow="0">
      <root>
        <mxCell id="6BJO4hyALbySRVImuce4-0" />
        <mxCell id="6BJO4hyALbySRVImuce4-1" parent="6BJO4hyALbySRVImuce4-0" />
        <mxCell id="viuWFr0abTA7on462Zb4-0" value="&#xa;&#xa;&lt;span style=&quot;color: rgb(0, 0, 0); font-family: helvetica; font-size: 12px; font-style: normal; font-weight: 400; letter-spacing: normal; text-align: center; text-indent: 0px; text-transform: none; word-spacing: 0px; background-color: rgb(248, 249, 250); display: inline; float: none;&quot;&gt;History&lt;/span&gt;&#xa;&#xa;" style="strokeWidth=1;shadow=0;dashed=0;align=left;html=1;shape=mxgraph.mockup.containers.browserWindow;rSize=0;strokeColor=#666666;strokeColor2=#008cff;strokeColor3=#c4c4c4;mainText=,;recursiveResize=0;fillColor=#FFFFFF;fontColor=#000000;" vertex="1" parent="6BJO4hyALbySRVImuce4-1">
          <mxGeometry x="40" y="240" width="755" height="720" as="geometry" />
        </mxCell>
        <mxCell id="viuWFr0abTA7on462Zb4-1" value="Page 1" style="strokeWidth=1;shadow=0;dashed=0;align=center;html=1;shape=mxgraph.mockup.containers.anchor;fontSize=17;fontColor=#666666;align=left;" vertex="1" parent="viuWFr0abTA7on462Zb4-0">
          <mxGeometry x="60" y="12" width="110" height="26" as="geometry" />
        </mxCell>
        <mxCell id="viuWFr0abTA7on462Zb4-2" value="https://www..../teacher/#testlibrary/new" style="strokeWidth=1;shadow=0;dashed=0;align=center;html=1;shape=mxgraph.mockup.containers.anchor;rSize=0;fontSize=17;fontColor=#666666;align=left;" vertex="1" parent="viuWFr0abTA7on462Zb4-0">
          <mxGeometry x="130" y="60" width="250" height="26" as="geometry" />
        </mxCell>
        <mxCell id="viuWFr0abTA7on462Zb4-3" value="" style="rounded=0;whiteSpace=wrap;html=1;strokeColor=#000000;fillColor=#FFFFFF;fontColor=#000000;align=left;" vertex="1" parent="viuWFr0abTA7on462Zb4-0">
          <mxGeometry y="110" width="140" height="610" as="geometry" />
        </mxCell>
        <mxCell id="viuWFr0abTA7on462Zb4-4" value="avatar" style="ellipse;whiteSpace=wrap;html=1;aspect=fixed;strokeColor=#000000;fillColor=#FFFFFF;fontColor=#000000;align=center;" vertex="1" parent="viuWFr0abTA7on462Zb4-0">
          <mxGeometry x="40" y="120" width="60" height="60" as="geometry" />
        </mxCell>
        <mxCell id="viuWFr0abTA7on462Zb4-5" value="Name" style="text;html=1;strokeColor=none;fillColor=none;align=center;verticalAlign=middle;whiteSpace=wrap;rounded=0;fontColor=#000000;" vertex="1" parent="viuWFr0abTA7on462Zb4-0">
          <mxGeometry x="50" y="190" width="40" height="20" as="geometry" />
        </mxCell>
        <mxCell id="viuWFr0abTA7on462Zb4-6" value="Student List" style="rounded=0;whiteSpace=wrap;html=1;align=center;" vertex="1" parent="viuWFr0abTA7on462Zb4-0">
          <mxGeometry y="330" width="140" height="60" as="geometry" />
        </mxCell>
        <mxCell id="viuWFr0abTA7on462Zb4-7" value="Test Library" style="rounded=0;whiteSpace=wrap;html=1;align=center;fillColor=#f8cecc;strokeColor=#b85450;" vertex="1" parent="viuWFr0abTA7on462Zb4-0">
          <mxGeometry y="270" width="140" height="60" as="geometry" />
        </mxCell>
        <mxCell id="viuWFr0abTA7on462Zb4-31" value="&lt;font style=&quot;font-size: 20px&quot;&gt;&lt;b&gt;Create Test&lt;/b&gt;&lt;/font&gt;" style="text;html=1;strokeColor=none;fillColor=none;align=center;verticalAlign=middle;whiteSpace=wrap;rounded=0;fontSize=14;fontColor=#000000;" vertex="1" parent="viuWFr0abTA7on462Zb4-0">
          <mxGeometry x="155" y="130" width="175" height="20" as="geometry" />
        </mxCell>
        <mxCell id="viuWFr0abTA7on462Zb4-33" value="&lt;font style=&quot;font-size: 16px ; font-weight: normal&quot;&gt;Title&lt;/font&gt;" style="fillColor=none;strokeColor=none;html=1;fontSize=11;fontStyle=0;align=left;fontStyle=1;fontSize=11" vertex="1" parent="viuWFr0abTA7on462Zb4-0">
          <mxGeometry x="185" y="180" width="240" height="20" as="geometry" />
        </mxCell>
        <mxCell id="viuWFr0abTA7on462Zb4-34" value="" style="rounded=1;arcSize=9;align=left;spacingLeft=5;html=1;strokeWidth=2;fontSize=12;" vertex="1" parent="viuWFr0abTA7on462Zb4-0">
          <mxGeometry x="185" y="210" width="235" height="40" as="geometry" />
        </mxCell>
        <mxCell id="viuWFr0abTA7on462Zb4-36" value="All" style="rounded=1;fillColor=#253858;strokeColor=none;html=1;fontColor=#ffffff;align=left;fontSize=12;spacingLeft=10" vertex="1" parent="viuWFr0abTA7on462Zb4-0">
          <mxGeometry x="590" y="210" width="110" height="40" as="geometry" />
        </mxCell>
        <mxCell id="viuWFr0abTA7on462Zb4-37" value="" style="shape=triangle;direction=south;fillColor=#ffffff;strokeColor=none;html=1" vertex="1" parent="viuWFr0abTA7on462Zb4-36">
          <mxGeometry x="1" y="0.5" width="12" height="6" relative="1" as="geometry">
            <mxPoint x="-20" y="-3" as="offset" />
          </mxGeometry>
        </mxCell>
        <mxCell id="viuWFr0abTA7on462Zb4-38" value="" style="rounded=1;fillColor=#ffffff;strokeColor=#DFE1E5;shadow=1;html=1;arcSize=4;fontSize=14;fontColor=#000000;align=center;" vertex="1" parent="viuWFr0abTA7on462Zb4-0">
          <mxGeometry x="589" y="250" width="110" height="80" as="geometry" />
        </mxCell>
        <mxCell id="viuWFr0abTA7on462Zb4-39" value="Class A" style="rounded=0;fillColor=#F4F5F7;strokeColor=none;shadow=0;html=1;align=left;fontSize=12;spacingLeft=10;fontColor=#253858;resizeWidth=1" vertex="1" parent="viuWFr0abTA7on462Zb4-38">
          <mxGeometry width="110" height="30" relative="1" as="geometry">
            <mxPoint y="6" as="offset" />
          </mxGeometry>
        </mxCell>
        <mxCell id="viuWFr0abTA7on462Zb4-40" value="Class B" style="rounded=0;fillColor=none;strokeColor=none;shadow=0;html=1;align=left;fontSize=12;spacingLeft=10;fontColor=#253858;resizeWidth=1" vertex="1" parent="viuWFr0abTA7on462Zb4-38">
          <mxGeometry width="110" height="33" relative="1" as="geometry">
            <mxPoint y="39" as="offset" />
          </mxGeometry>
        </mxCell>
        <mxCell id="viuWFr0abTA7on462Zb4-43" value="&lt;font style=&quot;font-size: 16px&quot;&gt;Class&lt;/font&gt;" style="text;html=1;strokeColor=none;fillColor=none;align=center;verticalAlign=middle;whiteSpace=wrap;rounded=0;fontSize=12;fontColor=#000000;" vertex="1" parent="viuWFr0abTA7on462Zb4-0">
          <mxGeometry x="585" y="180" width="40" height="20" as="geometry" />
        </mxCell>
        <mxCell id="viuWFr0abTA7on462Zb4-45" value="" style="rounded=1;whiteSpace=wrap;html=1;strokeColor=#000000;fillColor=#FFFFFF;fontSize=12;fontColor=#000000;align=left;" vertex="1" parent="viuWFr0abTA7on462Zb4-0">
          <mxGeometry x="185" y="360" width="515" height="160" as="geometry" />
        </mxCell>
        <mxCell id="YzfoiJIA1ixvQPfzJPfo-0" value="Question" style="text;html=1;strokeColor=none;fillColor=none;align=left;verticalAlign=middle;whiteSpace=wrap;rounded=0;fontSize=12;fontColor=#000000;" vertex="1" parent="viuWFr0abTA7on462Zb4-0">
          <mxGeometry x="210" y="380" width="65" height="20" as="geometry" />
        </mxCell>
        <mxCell id="YzfoiJIA1ixvQPfzJPfo-1" value="" style="rounded=1;whiteSpace=wrap;html=1;strokeColor=#000000;fillColor=#FFFFFF;fontSize=12;fontColor=#000000;align=left;" vertex="1" parent="viuWFr0abTA7on462Zb4-0">
          <mxGeometry x="305" y="380" width="305" height="20" as="geometry" />
        </mxCell>
        <mxCell id="YzfoiJIA1ixvQPfzJPfo-2" value="Checkbox" style="whiteSpace=wrap;html=1;aspect=fixed;strokeColor=#000000;fillColor=#FFFFFF;fontSize=12;fontColor=#000000;align=left;" vertex="1" parent="viuWFr0abTA7on462Zb4-0">
          <mxGeometry x="305" y="440" width="60" height="60" as="geometry" />
        </mxCell>
        <mxCell id="YzfoiJIA1ixvQPfzJPfo-3" value="Radio" style="whiteSpace=wrap;html=1;aspect=fixed;strokeColor=#000000;fillColor=#FFFFFF;fontSize=12;fontColor=#000000;align=center;" vertex="1" parent="viuWFr0abTA7on462Zb4-0">
          <mxGeometry x="405" y="440" width="60" height="60" as="geometry" />
        </mxCell>
        <mxCell id="YzfoiJIA1ixvQPfzJPfo-4" value="Fill" style="whiteSpace=wrap;html=1;aspect=fixed;strokeColor=#000000;fillColor=#FFFFFF;fontSize=12;fontColor=#000000;align=center;" vertex="1" parent="viuWFr0abTA7on462Zb4-0">
          <mxGeometry x="505" y="440" width="60" height="60" as="geometry" />
        </mxCell>
        <mxCell id="YzfoiJIA1ixvQPfzJPfo-5" value="" style="html=1;verticalLabelPosition=bottom;align=center;labelBackgroundColor=#ffffff;verticalAlign=top;strokeWidth=2;shadow=0;dashed=0;shape=mxgraph.ios7.icons.add;fontSize=12;" vertex="1" parent="viuWFr0abTA7on462Zb4-0">
          <mxGeometry x="427.5" y="560" width="30" height="30" as="geometry" />
        </mxCell>
        <mxCell id="YzfoiJIA1ixvQPfzJPfo-6" value="Save" style="strokeWidth=1;shadow=0;dashed=0;align=center;html=1;shape=mxgraph.mockup.buttons.button;mainText=;buttonStyle=round;fontSize=17;fontStyle=1;whiteSpace=wrap;" vertex="1" parent="viuWFr0abTA7on462Zb4-0">
          <mxGeometry x="590" y="620" width="110" height="50" as="geometry" />
        </mxCell>
        <mxCell id="Fl3OKdGFjkdrMXU6zWgE-1" value="None" style="rounded=1;fillColor=#253858;strokeColor=none;html=1;fontColor=#ffffff;align=left;fontSize=12;spacingLeft=10" vertex="1" parent="viuWFr0abTA7on462Zb4-0">
          <mxGeometry x="470" y="210" width="110" height="40" as="geometry" />
        </mxCell>
        <mxCell id="Fl3OKdGFjkdrMXU6zWgE-2" value="" style="shape=triangle;direction=south;fillColor=#ffffff;strokeColor=none;html=1" vertex="1" parent="Fl3OKdGFjkdrMXU6zWgE-1">
          <mxGeometry x="1" y="0.5" width="12" height="6" relative="1" as="geometry">
            <mxPoint x="-20" y="-3" as="offset" />
          </mxGeometry>
        </mxCell>
        <mxCell id="Fl3OKdGFjkdrMXU6zWgE-3" value="" style="rounded=1;fillColor=#ffffff;strokeColor=#DFE1E5;shadow=1;html=1;arcSize=4;fontSize=12;fontColor=#000000;align=left;" vertex="1" parent="viuWFr0abTA7on462Zb4-0">
          <mxGeometry x="470" y="246" width="110" height="84" as="geometry" />
        </mxCell>
        <mxCell id="Fl3OKdGFjkdrMXU6zWgE-4" value="1 hour" style="rounded=0;fillColor=#F4F5F7;strokeColor=none;shadow=0;html=1;align=left;fontSize=12;spacingLeft=10;fontColor=#253858;resizeWidth=1" vertex="1" parent="Fl3OKdGFjkdrMXU6zWgE-3">
          <mxGeometry width="107.44186046511629" height="33" relative="1" as="geometry">
            <mxPoint y="6" as="offset" />
          </mxGeometry>
        </mxCell>
        <mxCell id="Fl3OKdGFjkdrMXU6zWgE-11" value="2 hours" style="rounded=0;fillColor=none;strokeColor=none;shadow=0;html=1;align=left;fontSize=12;spacingLeft=10;fontColor=#253858;resizeWidth=1" vertex="1" parent="Fl3OKdGFjkdrMXU6zWgE-3">
          <mxGeometry x="-2.558139534883721" y="44" width="112.55813953488372" height="33" as="geometry" />
        </mxCell>
        <mxCell id="Fl3OKdGFjkdrMXU6zWgE-8" value="&lt;span style=&quot;font-size: 16px&quot;&gt;Time&lt;/span&gt;" style="text;html=1;strokeColor=none;fillColor=none;align=center;verticalAlign=middle;whiteSpace=wrap;rounded=0;fontSize=12;fontColor=#000000;" vertex="1" parent="viuWFr0abTA7on462Zb4-0">
          <mxGeometry x="475" y="180" width="40" height="20" as="geometry" />
        </mxCell>
        <mxCell id="yUARbbNwPfYPLqmJQ2fL-0" value="Points" style="text;html=1;strokeColor=none;fillColor=none;align=left;verticalAlign=middle;whiteSpace=wrap;rounded=0;fontSize=12;fontColor=#000000;" vertex="1" parent="viuWFr0abTA7on462Zb4-0">
          <mxGeometry x="210" y="410" width="65" height="20" as="geometry" />
        </mxCell>
        <mxCell id="yUARbbNwPfYPLqmJQ2fL-1" value="" style="rounded=1;whiteSpace=wrap;html=1;strokeColor=#000000;fillColor=#FFFFFF;fontSize=12;fontColor=#000000;align=left;" vertex="1" parent="viuWFr0abTA7on462Zb4-0">
          <mxGeometry x="305" y="410" width="305" height="20" as="geometry" />
        </mxCell>
      </root>
    </mxGraphModel>
  </diagram>
  <diagram id="kUvFj1bWD1tAG1qx684L" name="edit test">
    <mxGraphModel dx="1303" dy="728" grid="1" gridSize="10" guides="1" tooltips="1" connect="1" arrows="1" fold="1" page="1" pageScale="1" pageWidth="850" pageHeight="1100" math="0" shadow="0">
      <root>
        <mxCell id="pY_gxGFQqu-uSOYYO5DR-0" />
        <mxCell id="pY_gxGFQqu-uSOYYO5DR-1" parent="pY_gxGFQqu-uSOYYO5DR-0" />
        <mxCell id="_hSkMv-uW49_4zXHI3hg-0" value="&#xa;&#xa;&lt;span style=&quot;color: rgb(0, 0, 0); font-family: helvetica; font-size: 12px; font-style: normal; font-weight: 400; letter-spacing: normal; text-align: center; text-indent: 0px; text-transform: none; word-spacing: 0px; background-color: rgb(248, 249, 250); display: inline; float: none;&quot;&gt;History&lt;/span&gt;&#xa;&#xa;" style="strokeWidth=1;shadow=0;dashed=0;align=left;html=1;shape=mxgraph.mockup.containers.browserWindow;rSize=0;strokeColor=#666666;strokeColor2=#008cff;strokeColor3=#c4c4c4;mainText=,;recursiveResize=0;fillColor=#FFFFFF;fontColor=#000000;" vertex="1" parent="pY_gxGFQqu-uSOYYO5DR-1">
          <mxGeometry x="15" y="240" width="755" height="720" as="geometry" />
        </mxCell>
        <mxCell id="_hSkMv-uW49_4zXHI3hg-1" value="Page 1" style="strokeWidth=1;shadow=0;dashed=0;align=center;html=1;shape=mxgraph.mockup.containers.anchor;fontSize=17;fontColor=#666666;align=left;" vertex="1" parent="_hSkMv-uW49_4zXHI3hg-0">
          <mxGeometry x="60" y="12" width="110" height="26" as="geometry" />
        </mxCell>
        <mxCell id="_hSkMv-uW49_4zXHI3hg-2" value="https://www..../teacher/#testlibrary/testa/edit" style="strokeWidth=1;shadow=0;dashed=0;align=center;html=1;shape=mxgraph.mockup.containers.anchor;rSize=0;fontSize=17;fontColor=#666666;align=left;" vertex="1" parent="_hSkMv-uW49_4zXHI3hg-0">
          <mxGeometry x="130" y="60" width="250" height="26" as="geometry" />
        </mxCell>
        <mxCell id="_hSkMv-uW49_4zXHI3hg-3" value="" style="rounded=0;whiteSpace=wrap;html=1;strokeColor=#000000;fillColor=#FFFFFF;fontColor=#000000;align=left;" vertex="1" parent="_hSkMv-uW49_4zXHI3hg-0">
          <mxGeometry y="110" width="140" height="610" as="geometry" />
        </mxCell>
        <mxCell id="_hSkMv-uW49_4zXHI3hg-4" value="avatar" style="ellipse;whiteSpace=wrap;html=1;aspect=fixed;strokeColor=#000000;fillColor=#FFFFFF;fontColor=#000000;align=center;" vertex="1" parent="_hSkMv-uW49_4zXHI3hg-0">
          <mxGeometry x="40" y="120" width="60" height="60" as="geometry" />
        </mxCell>
        <mxCell id="_hSkMv-uW49_4zXHI3hg-5" value="Name" style="text;html=1;strokeColor=none;fillColor=none;align=center;verticalAlign=middle;whiteSpace=wrap;rounded=0;fontColor=#000000;" vertex="1" parent="_hSkMv-uW49_4zXHI3hg-0">
          <mxGeometry x="50" y="190" width="40" height="20" as="geometry" />
        </mxCell>
        <mxCell id="_hSkMv-uW49_4zXHI3hg-6" value="Student List" style="rounded=0;whiteSpace=wrap;html=1;align=center;" vertex="1" parent="_hSkMv-uW49_4zXHI3hg-0">
          <mxGeometry y="330" width="140" height="60" as="geometry" />
        </mxCell>
        <mxCell id="_hSkMv-uW49_4zXHI3hg-7" value="Test Library" style="rounded=0;whiteSpace=wrap;html=1;align=center;fillColor=#f8cecc;strokeColor=#b85450;" vertex="1" parent="_hSkMv-uW49_4zXHI3hg-0">
          <mxGeometry y="270" width="140" height="60" as="geometry" />
        </mxCell>
        <mxCell id="_hSkMv-uW49_4zXHI3hg-8" value="&lt;font style=&quot;font-size: 20px&quot;&gt;&lt;b&gt;Edit Test&lt;/b&gt;&lt;/font&gt;" style="text;html=1;strokeColor=none;fillColor=none;align=left;verticalAlign=middle;whiteSpace=wrap;rounded=0;fontSize=14;fontColor=#000000;" vertex="1" parent="_hSkMv-uW49_4zXHI3hg-0">
          <mxGeometry x="185" y="130" width="175" height="20" as="geometry" />
        </mxCell>
        <mxCell id="_hSkMv-uW49_4zXHI3hg-9" value="&lt;font style=&quot;font-size: 16px ; font-weight: normal&quot;&gt;Title&lt;/font&gt;" style="fillColor=none;strokeColor=none;html=1;fontSize=11;fontStyle=0;align=left;fontStyle=1;fontSize=11" vertex="1" parent="_hSkMv-uW49_4zXHI3hg-0">
          <mxGeometry x="185" y="180" width="240" height="20" as="geometry" />
        </mxCell>
        <mxCell id="_hSkMv-uW49_4zXHI3hg-10" value="" style="rounded=1;arcSize=9;align=left;spacingLeft=5;html=1;strokeWidth=2;fontSize=12;" vertex="1" parent="_hSkMv-uW49_4zXHI3hg-0">
          <mxGeometry x="185" y="210" width="235" height="40" as="geometry" />
        </mxCell>
        <mxCell id="_hSkMv-uW49_4zXHI3hg-17" value="" style="rounded=1;whiteSpace=wrap;html=1;strokeColor=#000000;fillColor=#FFFFFF;fontSize=12;fontColor=#000000;align=left;" vertex="1" parent="_hSkMv-uW49_4zXHI3hg-0">
          <mxGeometry x="185" y="360" width="515" height="160" as="geometry" />
        </mxCell>
        <mxCell id="_hSkMv-uW49_4zXHI3hg-18" value="Question" style="text;html=1;strokeColor=none;fillColor=none;align=left;verticalAlign=middle;whiteSpace=wrap;rounded=0;fontSize=12;fontColor=#000000;" vertex="1" parent="_hSkMv-uW49_4zXHI3hg-0">
          <mxGeometry x="205" y="380" width="65" height="20" as="geometry" />
        </mxCell>
        <mxCell id="_hSkMv-uW49_4zXHI3hg-19" value="" style="rounded=1;whiteSpace=wrap;html=1;strokeColor=#000000;fillColor=#FFFFFF;fontSize=12;fontColor=#000000;align=left;" vertex="1" parent="_hSkMv-uW49_4zXHI3hg-0">
          <mxGeometry x="305" y="380" width="285" height="20" as="geometry" />
        </mxCell>
        <mxCell id="_hSkMv-uW49_4zXHI3hg-20" value="Checkbox" style="whiteSpace=wrap;html=1;aspect=fixed;strokeColor=#000000;fillColor=#FFFFFF;fontSize=12;fontColor=#000000;align=left;" vertex="1" parent="_hSkMv-uW49_4zXHI3hg-0">
          <mxGeometry x="305" y="440" width="60" height="60" as="geometry" />
        </mxCell>
        <mxCell id="_hSkMv-uW49_4zXHI3hg-21" value="Radio" style="whiteSpace=wrap;html=1;aspect=fixed;strokeColor=#000000;fillColor=#FFFFFF;fontSize=12;fontColor=#000000;align=center;" vertex="1" parent="_hSkMv-uW49_4zXHI3hg-0">
          <mxGeometry x="405" y="440" width="60" height="60" as="geometry" />
        </mxCell>
        <mxCell id="_hSkMv-uW49_4zXHI3hg-22" value="Fill" style="whiteSpace=wrap;html=1;aspect=fixed;strokeColor=#000000;fillColor=#FFFFFF;fontSize=12;fontColor=#000000;align=center;" vertex="1" parent="_hSkMv-uW49_4zXHI3hg-0">
          <mxGeometry x="505" y="440" width="60" height="60" as="geometry" />
        </mxCell>
        <mxCell id="_hSkMv-uW49_4zXHI3hg-23" value="" style="html=1;verticalLabelPosition=bottom;align=center;labelBackgroundColor=#ffffff;verticalAlign=top;strokeWidth=2;shadow=0;dashed=0;shape=mxgraph.ios7.icons.add;fontSize=12;" vertex="1" parent="_hSkMv-uW49_4zXHI3hg-0">
          <mxGeometry x="427.5" y="560" width="30" height="30" as="geometry" />
        </mxCell>
        <mxCell id="_hSkMv-uW49_4zXHI3hg-24" value="Save" style="strokeWidth=1;shadow=0;dashed=0;align=center;html=1;shape=mxgraph.mockup.buttons.button;mainText=;buttonStyle=round;fontSize=17;fontStyle=1;whiteSpace=wrap;" vertex="1" parent="_hSkMv-uW49_4zXHI3hg-0">
          <mxGeometry x="590" y="620" width="110" height="50" as="geometry" />
        </mxCell>
        <mxCell id="1Cw2CxlRkjUDIHbpleRD-0" value="Delete" style="strokeWidth=1;shadow=0;dashed=0;align=center;html=1;shape=mxgraph.mockup.buttons.button;strokeColor=#b85450;mainText=;buttonStyle=round;fontSize=17;fontStyle=1;fillColor=#f8cecc;whiteSpace=wrap;" vertex="1" parent="_hSkMv-uW49_4zXHI3hg-0">
          <mxGeometry x="620" y="423.75" width="70" height="32.5" as="geometry" />
        </mxCell>
        <mxCell id="1Cw2CxlRkjUDIHbpleRD-1" value="Delete" style="strokeWidth=1;shadow=0;dashed=0;align=center;html=1;shape=mxgraph.mockup.buttons.button;strokeColor=#b85450;mainText=;buttonStyle=round;fontSize=17;fontStyle=1;fillColor=#f8cecc;whiteSpace=wrap;" vertex="1" parent="_hSkMv-uW49_4zXHI3hg-0">
          <mxGeometry x="475" y="620" width="100" height="50" as="geometry" />
        </mxCell>
        <mxCell id="0DRwtXvldMlPYKpx5axX-0" value="Points" style="text;html=1;strokeColor=none;fillColor=none;align=left;verticalAlign=middle;whiteSpace=wrap;rounded=0;fontSize=12;fontColor=#000000;" vertex="1" parent="_hSkMv-uW49_4zXHI3hg-0">
          <mxGeometry x="205" y="410" width="65" height="20" as="geometry" />
        </mxCell>
        <mxCell id="0DRwtXvldMlPYKpx5axX-1" value="" style="rounded=1;whiteSpace=wrap;html=1;strokeColor=#000000;fillColor=#FFFFFF;fontSize=12;fontColor=#000000;align=left;" vertex="1" parent="_hSkMv-uW49_4zXHI3hg-0">
          <mxGeometry x="305" y="410" width="285" height="20" as="geometry" />
        </mxCell>
        <mxCell id="oryzhs4Oi6ySSl-qiSEe-0" value="All" style="rounded=1;fillColor=#253858;strokeColor=none;html=1;fontColor=#ffffff;align=left;fontSize=12;spacingLeft=10" vertex="1" parent="pY_gxGFQqu-uSOYYO5DR-1">
          <mxGeometry x="630" y="450" width="110" height="40" as="geometry" />
        </mxCell>
        <mxCell id="oryzhs4Oi6ySSl-qiSEe-1" value="" style="shape=triangle;direction=south;fillColor=#ffffff;strokeColor=none;html=1" vertex="1" parent="oryzhs4Oi6ySSl-qiSEe-0">
          <mxGeometry x="1" y="0.5" width="12" height="6" relative="1" as="geometry">
            <mxPoint x="-20" y="-3" as="offset" />
          </mxGeometry>
        </mxCell>
        <mxCell id="oryzhs4Oi6ySSl-qiSEe-2" value="" style="rounded=1;fillColor=#ffffff;strokeColor=#DFE1E5;shadow=1;html=1;arcSize=4;fontSize=14;fontColor=#000000;align=center;" vertex="1" parent="pY_gxGFQqu-uSOYYO5DR-1">
          <mxGeometry x="629" y="490" width="110" height="80" as="geometry" />
        </mxCell>
        <mxCell id="oryzhs4Oi6ySSl-qiSEe-3" value="Class A" style="rounded=0;fillColor=#F4F5F7;strokeColor=none;shadow=0;html=1;align=left;fontSize=12;spacingLeft=10;fontColor=#253858;resizeWidth=1" vertex="1" parent="oryzhs4Oi6ySSl-qiSEe-2">
          <mxGeometry width="110" height="30" relative="1" as="geometry">
            <mxPoint y="6" as="offset" />
          </mxGeometry>
        </mxCell>
        <mxCell id="oryzhs4Oi6ySSl-qiSEe-4" value="Class B" style="rounded=0;fillColor=none;strokeColor=none;shadow=0;html=1;align=left;fontSize=12;spacingLeft=10;fontColor=#253858;resizeWidth=1" vertex="1" parent="oryzhs4Oi6ySSl-qiSEe-2">
          <mxGeometry width="110" height="33" relative="1" as="geometry">
            <mxPoint y="39" as="offset" />
          </mxGeometry>
        </mxCell>
        <mxCell id="oryzhs4Oi6ySSl-qiSEe-5" value="&lt;font style=&quot;font-size: 16px&quot;&gt;Class&lt;/font&gt;" style="text;html=1;strokeColor=none;fillColor=none;align=center;verticalAlign=middle;whiteSpace=wrap;rounded=0;fontSize=12;fontColor=#000000;" vertex="1" parent="pY_gxGFQqu-uSOYYO5DR-1">
          <mxGeometry x="625" y="420" width="40" height="20" as="geometry" />
        </mxCell>
        <mxCell id="oryzhs4Oi6ySSl-qiSEe-6" value="None" style="rounded=1;fillColor=#253858;strokeColor=none;html=1;fontColor=#ffffff;align=left;fontSize=12;spacingLeft=10" vertex="1" parent="pY_gxGFQqu-uSOYYO5DR-1">
          <mxGeometry x="510" y="450" width="110" height="40" as="geometry" />
        </mxCell>
        <mxCell id="oryzhs4Oi6ySSl-qiSEe-7" value="" style="shape=triangle;direction=south;fillColor=#ffffff;strokeColor=none;html=1" vertex="1" parent="oryzhs4Oi6ySSl-qiSEe-6">
          <mxGeometry x="1" y="0.5" width="12" height="6" relative="1" as="geometry">
            <mxPoint x="-20" y="-3" as="offset" />
          </mxGeometry>
        </mxCell>
        <mxCell id="oryzhs4Oi6ySSl-qiSEe-8" value="" style="rounded=1;fillColor=#ffffff;strokeColor=#DFE1E5;shadow=1;html=1;arcSize=4;fontSize=12;fontColor=#000000;align=left;" vertex="1" parent="pY_gxGFQqu-uSOYYO5DR-1">
          <mxGeometry x="510" y="486" width="110" height="84" as="geometry" />
        </mxCell>
        <mxCell id="oryzhs4Oi6ySSl-qiSEe-9" value="1 hour" style="rounded=0;fillColor=#F4F5F7;strokeColor=none;shadow=0;html=1;align=left;fontSize=12;spacingLeft=10;fontColor=#253858;resizeWidth=1" vertex="1" parent="oryzhs4Oi6ySSl-qiSEe-8">
          <mxGeometry width="107.44186046511629" height="33" relative="1" as="geometry">
            <mxPoint y="6" as="offset" />
          </mxGeometry>
        </mxCell>
        <mxCell id="oryzhs4Oi6ySSl-qiSEe-10" value="2 hours" style="rounded=0;fillColor=none;strokeColor=none;shadow=0;html=1;align=left;fontSize=12;spacingLeft=10;fontColor=#253858;resizeWidth=1" vertex="1" parent="oryzhs4Oi6ySSl-qiSEe-8">
          <mxGeometry x="-2.558139534883721" y="44" width="112.55813953488372" height="33" as="geometry" />
        </mxCell>
        <mxCell id="oryzhs4Oi6ySSl-qiSEe-11" value="&lt;span style=&quot;font-size: 16px&quot;&gt;Time&lt;/span&gt;" style="text;html=1;strokeColor=none;fillColor=none;align=center;verticalAlign=middle;whiteSpace=wrap;rounded=0;fontSize=12;fontColor=#000000;" vertex="1" parent="pY_gxGFQqu-uSOYYO5DR-1">
          <mxGeometry x="515" y="420" width="40" height="20" as="geometry" />
        </mxCell>
      </root>
    </mxGraphModel>
  </diagram>
  <diagram id="npKVowUoaoln9ftAo7_2" name="rank (teacher)">
    <mxGraphModel dx="1303" dy="728" grid="1" gridSize="10" guides="1" tooltips="1" connect="1" arrows="1" fold="1" page="1" pageScale="1" pageWidth="850" pageHeight="1100" math="0" shadow="0">
      <root>
        <mxCell id="FmLvWgI_1-nKUOxzPjxm-0" />
        <mxCell id="FmLvWgI_1-nKUOxzPjxm-1" parent="FmLvWgI_1-nKUOxzPjxm-0" />
        <mxCell id="f1M4Om3sFnwn4pqWxKSU-0" value="&#xa;&#xa;&lt;span style=&quot;color: rgb(0, 0, 0); font-family: helvetica; font-size: 12px; font-style: normal; font-weight: 400; letter-spacing: normal; text-align: center; text-indent: 0px; text-transform: none; word-spacing: 0px; background-color: rgb(248, 249, 250); display: inline; float: none;&quot;&gt;History&lt;/span&gt;&#xa;&#xa;" style="strokeWidth=1;shadow=0;dashed=0;align=left;html=1;shape=mxgraph.mockup.containers.browserWindow;rSize=0;strokeColor=#666666;strokeColor2=#008cff;strokeColor3=#c4c4c4;mainText=,;recursiveResize=0;fillColor=#FFFFFF;fontColor=#000000;" vertex="1" parent="FmLvWgI_1-nKUOxzPjxm-1">
          <mxGeometry x="15" y="240" width="755" height="720" as="geometry" />
        </mxCell>
        <mxCell id="f1M4Om3sFnwn4pqWxKSU-1" value="Page 1" style="strokeWidth=1;shadow=0;dashed=0;align=center;html=1;shape=mxgraph.mockup.containers.anchor;fontSize=17;fontColor=#666666;align=left;" vertex="1" parent="f1M4Om3sFnwn4pqWxKSU-0">
          <mxGeometry x="60" y="12" width="110" height="26" as="geometry" />
        </mxCell>
        <mxCell id="f1M4Om3sFnwn4pqWxKSU-2" value="https://www..../teacher/#testlibrary/testa/edit" style="strokeWidth=1;shadow=0;dashed=0;align=center;html=1;shape=mxgraph.mockup.containers.anchor;rSize=0;fontSize=17;fontColor=#666666;align=left;" vertex="1" parent="f1M4Om3sFnwn4pqWxKSU-0">
          <mxGeometry x="130" y="60" width="250" height="26" as="geometry" />
        </mxCell>
        <mxCell id="f1M4Om3sFnwn4pqWxKSU-3" value="" style="rounded=0;whiteSpace=wrap;html=1;strokeColor=#000000;fillColor=#FFFFFF;fontColor=#000000;align=left;" vertex="1" parent="f1M4Om3sFnwn4pqWxKSU-0">
          <mxGeometry y="110" width="140" height="610" as="geometry" />
        </mxCell>
        <mxCell id="f1M4Om3sFnwn4pqWxKSU-4" value="avatar" style="ellipse;whiteSpace=wrap;html=1;aspect=fixed;strokeColor=#000000;fillColor=#FFFFFF;fontColor=#000000;align=center;" vertex="1" parent="f1M4Om3sFnwn4pqWxKSU-0">
          <mxGeometry x="40" y="120" width="60" height="60" as="geometry" />
        </mxCell>
        <mxCell id="f1M4Om3sFnwn4pqWxKSU-5" value="Name" style="text;html=1;strokeColor=none;fillColor=none;align=center;verticalAlign=middle;whiteSpace=wrap;rounded=0;fontColor=#000000;" vertex="1" parent="f1M4Om3sFnwn4pqWxKSU-0">
          <mxGeometry x="50" y="190" width="40" height="20" as="geometry" />
        </mxCell>
        <mxCell id="f1M4Om3sFnwn4pqWxKSU-6" value="Student List" style="rounded=0;whiteSpace=wrap;html=1;align=center;" vertex="1" parent="f1M4Om3sFnwn4pqWxKSU-0">
          <mxGeometry y="330" width="140" height="60" as="geometry" />
        </mxCell>
        <mxCell id="f1M4Om3sFnwn4pqWxKSU-7" value="Test Library" style="rounded=0;whiteSpace=wrap;html=1;align=center;fillColor=#f8cecc;strokeColor=#b85450;" vertex="1" parent="f1M4Om3sFnwn4pqWxKSU-0">
          <mxGeometry y="270" width="140" height="60" as="geometry" />
        </mxCell>
        <mxCell id="f1M4Om3sFnwn4pqWxKSU-8" value="&lt;font style=&quot;font-size: 20px&quot;&gt;&lt;b&gt;Rank (Test A)&lt;/b&gt;&lt;/font&gt;" style="text;html=1;strokeColor=none;fillColor=none;align=left;verticalAlign=middle;whiteSpace=wrap;rounded=0;fontSize=14;fontColor=#000000;" vertex="1" parent="f1M4Om3sFnwn4pqWxKSU-0">
          <mxGeometry x="185" y="130" width="175" height="20" as="geometry" />
        </mxCell>
        <mxCell id="f1M4Om3sFnwn4pqWxKSU-86" value="&lt;font color=&quot;#000000&quot; style=&quot;font-size: 16px&quot;&gt;Sort by&lt;/font&gt;" style="rounded=1;fillColor=none;strokeColor=none;html=1;fontColor=#596780;align=left;fontSize=11;spacingLeft=10;fontSize=11" vertex="1" parent="f1M4Om3sFnwn4pqWxKSU-0">
          <mxGeometry x="575" y="130" width="100" height="20" as="geometry" />
        </mxCell>
        <mxCell id="f1M4Om3sFnwn4pqWxKSU-87" value="Score" style="rounded=1;fillColor=#253858;strokeColor=none;html=1;fontColor=#ffffff;align=left;fontSize=12;spacingLeft=10" vertex="1" parent="f1M4Om3sFnwn4pqWxKSU-0">
          <mxGeometry x="585" y="150" width="105" height="33" as="geometry" />
        </mxCell>
        <mxCell id="f1M4Om3sFnwn4pqWxKSU-88" value="" style="shape=triangle;direction=south;fillColor=#ffffff;strokeColor=none;html=1" vertex="1" parent="f1M4Om3sFnwn4pqWxKSU-87">
          <mxGeometry x="1" y="0.5" width="12" height="6" relative="1" as="geometry">
            <mxPoint x="-20" y="-3" as="offset" />
          </mxGeometry>
        </mxCell>
        <mxCell id="f1M4Om3sFnwn4pqWxKSU-89" value="" style="rounded=1;fillColor=#ffffff;strokeColor=#DFE1E5;shadow=1;html=1;arcSize=4;fontSize=12;fontColor=#000000;align=left;" vertex="1" parent="f1M4Om3sFnwn4pqWxKSU-0">
          <mxGeometry x="585" y="180" width="105" height="40" as="geometry" />
        </mxCell>
        <mxCell id="f1M4Om3sFnwn4pqWxKSU-91" value="Time" style="rounded=0;fillColor=none;strokeColor=none;shadow=0;html=1;align=left;fontSize=12;spacingLeft=10;fontColor=#253858;resizeWidth=1" vertex="1" parent="f1M4Om3sFnwn4pqWxKSU-89">
          <mxGeometry width="95.45454545454545" height="33" relative="1" as="geometry">
            <mxPoint as="offset" />
          </mxGeometry>
        </mxCell>
        <mxCell id="f1M4Om3sFnwn4pqWxKSU-92" value="Abandoned" style="rounded=0;fillColor=none;strokeColor=none;shadow=0;html=1;align=left;fontSize=12;spacingLeft=10;fontColor=#253858;resizeWidth=1" vertex="1" parent="f1M4Om3sFnwn4pqWxKSU-89">
          <mxGeometry width="105" height="33" relative="1" as="geometry">
            <mxPoint y="132" as="offset" />
          </mxGeometry>
        </mxCell>
        <mxCell id="f1M4Om3sFnwn4pqWxKSU-93" value="Workflow" style="rounded=0;fillColor=none;strokeColor=none;shadow=0;html=1;align=left;fontSize=12;spacingLeft=10;fontColor=#253858;resizeWidth=1" vertex="1" parent="f1M4Om3sFnwn4pqWxKSU-89">
          <mxGeometry width="105" height="33" relative="1" as="geometry">
            <mxPoint y="165" as="offset" />
          </mxGeometry>
        </mxCell>
        <mxCell id="f1M4Om3sFnwn4pqWxKSU-65" value="" style="shape=table;html=1;whiteSpace=wrap;startSize=0;container=1;collapsible=0;childLayout=tableLayout;" vertex="1" parent="FmLvWgI_1-nKUOxzPjxm-1">
          <mxGeometry x="200" y="550" width="510" height="160" as="geometry" />
        </mxCell>
        <mxCell id="f1M4Om3sFnwn4pqWxKSU-66" value="" style="shape=partialRectangle;html=1;whiteSpace=wrap;collapsible=0;dropTarget=0;pointerEvents=0;fillColor=none;top=0;left=0;bottom=0;right=0;points=[[0,0.5],[1,0.5]];portConstraint=eastwest;" vertex="1" parent="f1M4Om3sFnwn4pqWxKSU-65">
          <mxGeometry width="510" height="40" as="geometry" />
        </mxCell>
        <mxCell id="f1M4Om3sFnwn4pqWxKSU-67" value="" style="shape=partialRectangle;html=1;whiteSpace=wrap;connectable=0;overflow=hidden;fillColor=none;top=0;left=0;bottom=0;right=0;" vertex="1" parent="f1M4Om3sFnwn4pqWxKSU-66">
          <mxGeometry width="80" height="40" as="geometry" />
        </mxCell>
        <mxCell id="f1M4Om3sFnwn4pqWxKSU-68" value="Full name" style="shape=partialRectangle;html=1;whiteSpace=wrap;connectable=0;overflow=hidden;fillColor=none;top=0;left=0;bottom=0;right=0;" vertex="1" parent="f1M4Om3sFnwn4pqWxKSU-66">
          <mxGeometry x="80" width="250" height="40" as="geometry" />
        </mxCell>
        <mxCell id="f1M4Om3sFnwn4pqWxKSU-69" value="Score" style="shape=partialRectangle;html=1;whiteSpace=wrap;connectable=0;overflow=hidden;fillColor=none;top=0;left=0;bottom=0;right=0;" vertex="1" parent="f1M4Om3sFnwn4pqWxKSU-66">
          <mxGeometry x="330" width="100" height="40" as="geometry" />
        </mxCell>
        <mxCell id="f1M4Om3sFnwn4pqWxKSU-70" value="Time" style="shape=partialRectangle;html=1;whiteSpace=wrap;connectable=0;overflow=hidden;fillColor=none;top=0;left=0;bottom=0;right=0;" vertex="1" parent="f1M4Om3sFnwn4pqWxKSU-66">
          <mxGeometry x="430" width="80" height="40" as="geometry" />
        </mxCell>
        <mxCell id="f1M4Om3sFnwn4pqWxKSU-71" value="" style="shape=partialRectangle;html=1;whiteSpace=wrap;collapsible=0;dropTarget=0;pointerEvents=0;fillColor=none;top=0;left=0;bottom=0;right=0;points=[[0,0.5],[1,0.5]];portConstraint=eastwest;" vertex="1" parent="f1M4Om3sFnwn4pqWxKSU-65">
          <mxGeometry y="40" width="510" height="40" as="geometry" />
        </mxCell>
        <mxCell id="f1M4Om3sFnwn4pqWxKSU-72" value="1" style="shape=partialRectangle;html=1;whiteSpace=wrap;connectable=0;overflow=hidden;fillColor=none;top=0;left=0;bottom=0;right=0;" vertex="1" parent="f1M4Om3sFnwn4pqWxKSU-71">
          <mxGeometry width="80" height="40" as="geometry" />
        </mxCell>
        <mxCell id="f1M4Om3sFnwn4pqWxKSU-73" value="" style="shape=partialRectangle;html=1;whiteSpace=wrap;connectable=0;overflow=hidden;fillColor=none;top=0;left=0;bottom=0;right=0;" vertex="1" parent="f1M4Om3sFnwn4pqWxKSU-71">
          <mxGeometry x="80" width="250" height="40" as="geometry" />
        </mxCell>
        <mxCell id="f1M4Om3sFnwn4pqWxKSU-74" value="" style="shape=partialRectangle;html=1;whiteSpace=wrap;connectable=0;overflow=hidden;fillColor=none;top=0;left=0;bottom=0;right=0;" vertex="1" parent="f1M4Om3sFnwn4pqWxKSU-71">
          <mxGeometry x="330" width="100" height="40" as="geometry" />
        </mxCell>
        <mxCell id="f1M4Om3sFnwn4pqWxKSU-75" value="" style="shape=partialRectangle;html=1;whiteSpace=wrap;connectable=0;overflow=hidden;fillColor=none;top=0;left=0;bottom=0;right=0;" vertex="1" parent="f1M4Om3sFnwn4pqWxKSU-71">
          <mxGeometry x="430" width="80" height="40" as="geometry" />
        </mxCell>
        <mxCell id="f1M4Om3sFnwn4pqWxKSU-76" value="" style="shape=partialRectangle;html=1;whiteSpace=wrap;collapsible=0;dropTarget=0;pointerEvents=0;fillColor=none;top=0;left=0;bottom=0;right=0;points=[[0,0.5],[1,0.5]];portConstraint=eastwest;" vertex="1" parent="f1M4Om3sFnwn4pqWxKSU-65">
          <mxGeometry y="80" width="510" height="40" as="geometry" />
        </mxCell>
        <mxCell id="f1M4Om3sFnwn4pqWxKSU-77" value="2" style="shape=partialRectangle;html=1;whiteSpace=wrap;connectable=0;overflow=hidden;fillColor=none;top=0;left=0;bottom=0;right=0;" vertex="1" parent="f1M4Om3sFnwn4pqWxKSU-76">
          <mxGeometry width="80" height="40" as="geometry" />
        </mxCell>
        <mxCell id="f1M4Om3sFnwn4pqWxKSU-78" value="" style="shape=partialRectangle;html=1;whiteSpace=wrap;connectable=0;overflow=hidden;fillColor=none;top=0;left=0;bottom=0;right=0;" vertex="1" parent="f1M4Om3sFnwn4pqWxKSU-76">
          <mxGeometry x="80" width="250" height="40" as="geometry" />
        </mxCell>
        <mxCell id="f1M4Om3sFnwn4pqWxKSU-79" value="" style="shape=partialRectangle;html=1;whiteSpace=wrap;connectable=0;overflow=hidden;fillColor=none;top=0;left=0;bottom=0;right=0;" vertex="1" parent="f1M4Om3sFnwn4pqWxKSU-76">
          <mxGeometry x="330" width="100" height="40" as="geometry" />
        </mxCell>
        <mxCell id="f1M4Om3sFnwn4pqWxKSU-80" value="" style="shape=partialRectangle;html=1;whiteSpace=wrap;connectable=0;overflow=hidden;fillColor=none;top=0;left=0;bottom=0;right=0;" vertex="1" parent="f1M4Om3sFnwn4pqWxKSU-76">
          <mxGeometry x="430" width="80" height="40" as="geometry" />
        </mxCell>
        <mxCell id="f1M4Om3sFnwn4pqWxKSU-81" style="shape=partialRectangle;html=1;whiteSpace=wrap;collapsible=0;dropTarget=0;pointerEvents=0;fillColor=none;top=0;left=0;bottom=0;right=0;points=[[0,0.5],[1,0.5]];portConstraint=eastwest;" vertex="1" parent="f1M4Om3sFnwn4pqWxKSU-65">
          <mxGeometry y="120" width="510" height="40" as="geometry" />
        </mxCell>
        <mxCell id="f1M4Om3sFnwn4pqWxKSU-82" value="..." style="shape=partialRectangle;html=1;whiteSpace=wrap;connectable=0;overflow=hidden;fillColor=none;top=0;left=0;bottom=0;right=0;" vertex="1" parent="f1M4Om3sFnwn4pqWxKSU-81">
          <mxGeometry width="80" height="40" as="geometry" />
        </mxCell>
        <mxCell id="f1M4Om3sFnwn4pqWxKSU-83" style="shape=partialRectangle;html=1;whiteSpace=wrap;connectable=0;overflow=hidden;fillColor=none;top=0;left=0;bottom=0;right=0;" vertex="1" parent="f1M4Om3sFnwn4pqWxKSU-81">
          <mxGeometry x="80" width="250" height="40" as="geometry" />
        </mxCell>
        <mxCell id="f1M4Om3sFnwn4pqWxKSU-84" style="shape=partialRectangle;html=1;whiteSpace=wrap;connectable=0;overflow=hidden;fillColor=none;top=0;left=0;bottom=0;right=0;" vertex="1" parent="f1M4Om3sFnwn4pqWxKSU-81">
          <mxGeometry x="330" width="100" height="40" as="geometry" />
        </mxCell>
        <mxCell id="f1M4Om3sFnwn4pqWxKSU-85" style="shape=partialRectangle;html=1;whiteSpace=wrap;connectable=0;overflow=hidden;fillColor=none;top=0;left=0;bottom=0;right=0;" vertex="1" parent="f1M4Om3sFnwn4pqWxKSU-81">
          <mxGeometry x="430" width="80" height="40" as="geometry" />
        </mxCell>
      </root>
    </mxGraphModel>
  </diagram>
  <diagram id="NPAowKcXCV-YpOqKqchH" name="student list (teacher)">
    <mxGraphModel dx="1117" dy="624" grid="1" gridSize="10" guides="1" tooltips="1" connect="1" arrows="1" fold="1" page="1" pageScale="1" pageWidth="850" pageHeight="1100" math="0" shadow="0">
      <root>
        <mxCell id="mqaMaVXwd7UdxDIL51V4-0" />
        <mxCell id="mqaMaVXwd7UdxDIL51V4-1" parent="mqaMaVXwd7UdxDIL51V4-0" />
        <mxCell id="mqaMaVXwd7UdxDIL51V4-2" value="&#xa;&#xa;&lt;span style=&quot;color: rgb(0, 0, 0); font-family: helvetica; font-size: 12px; font-style: normal; font-weight: 400; letter-spacing: normal; text-align: center; text-indent: 0px; text-transform: none; word-spacing: 0px; background-color: rgb(248, 249, 250); display: inline; float: none;&quot;&gt;History&lt;/span&gt;&#xa;&#xa;" style="strokeWidth=1;shadow=0;dashed=0;align=left;html=1;shape=mxgraph.mockup.containers.browserWindow;rSize=0;strokeColor=#666666;strokeColor2=#008cff;strokeColor3=#c4c4c4;mainText=,;recursiveResize=0;fillColor=#FFFFFF;fontColor=#000000;" vertex="1" parent="mqaMaVXwd7UdxDIL51V4-1">
          <mxGeometry x="15" y="250" width="820" height="580" as="geometry" />
        </mxCell>
        <mxCell id="mqaMaVXwd7UdxDIL51V4-3" value="Page 1" style="strokeWidth=1;shadow=0;dashed=0;align=center;html=1;shape=mxgraph.mockup.containers.anchor;fontSize=17;fontColor=#666666;align=left;" vertex="1" parent="mqaMaVXwd7UdxDIL51V4-2">
          <mxGeometry x="60" y="12" width="110" height="26" as="geometry" />
        </mxCell>
        <mxCell id="mqaMaVXwd7UdxDIL51V4-4" value="https://www..../teacher/#studentlist" style="strokeWidth=1;shadow=0;dashed=0;align=center;html=1;shape=mxgraph.mockup.containers.anchor;rSize=0;fontSize=17;fontColor=#666666;align=left;" vertex="1" parent="mqaMaVXwd7UdxDIL51V4-2">
          <mxGeometry x="130" y="60" width="250" height="26" as="geometry" />
        </mxCell>
        <mxCell id="mqaMaVXwd7UdxDIL51V4-5" value="&#xa;&#xa;&lt;span style=&quot;color: rgb(0, 0, 0); font-family: helvetica; font-size: 12px; font-style: normal; font-weight: 400; letter-spacing: normal; text-align: center; text-indent: 0px; text-transform: none; word-spacing: 0px; background-color: rgb(248, 249, 250); display: inline; float: none;&quot;&gt;History&lt;/span&gt;&#xa;&#xa;" style="rounded=0;whiteSpace=wrap;html=1;strokeColor=#000000;fillColor=#FFFFFF;fontColor=#000000;align=left;" vertex="1" parent="mqaMaVXwd7UdxDIL51V4-2">
          <mxGeometry y="110" width="140" height="470" as="geometry" />
        </mxCell>
        <mxCell id="mqaMaVXwd7UdxDIL51V4-6" value="avatar" style="ellipse;whiteSpace=wrap;html=1;aspect=fixed;strokeColor=#000000;fillColor=#FFFFFF;fontColor=#000000;align=center;" vertex="1" parent="mqaMaVXwd7UdxDIL51V4-2">
          <mxGeometry x="40" y="120" width="60" height="60" as="geometry" />
        </mxCell>
        <mxCell id="mqaMaVXwd7UdxDIL51V4-7" value="Name" style="text;html=1;strokeColor=none;fillColor=none;align=center;verticalAlign=middle;whiteSpace=wrap;rounded=0;fontColor=#000000;" vertex="1" parent="mqaMaVXwd7UdxDIL51V4-2">
          <mxGeometry x="50" y="190" width="40" height="20" as="geometry" />
        </mxCell>
        <mxCell id="mqaMaVXwd7UdxDIL51V4-9" value="Student List" style="rounded=0;whiteSpace=wrap;html=1;strokeColor=#b85450;fillColor=#f8cecc;align=center;" vertex="1" parent="mqaMaVXwd7UdxDIL51V4-2">
          <mxGeometry y="330" width="140" height="60" as="geometry" />
        </mxCell>
        <mxCell id="mqaMaVXwd7UdxDIL51V4-10" value="Class A" style="rounded=0;whiteSpace=wrap;html=1;strokeColor=#000000;fillColor=#FFFFFF;fontColor=#000000;align=center;" vertex="1" parent="mqaMaVXwd7UdxDIL51V4-2">
          <mxGeometry x="195" y="140" width="145" height="130" as="geometry" />
        </mxCell>
        <mxCell id="mqaMaVXwd7UdxDIL51V4-11" value="Class B" style="rounded=0;whiteSpace=wrap;html=1;strokeColor=#000000;fillColor=#FFFFFF;fontColor=#000000;align=center;" vertex="1" parent="mqaMaVXwd7UdxDIL51V4-2">
          <mxGeometry x="405" y="140" width="150" height="130" as="geometry" />
        </mxCell>
        <mxCell id="mqaMaVXwd7UdxDIL51V4-12" value="Class C" style="rounded=0;whiteSpace=wrap;html=1;strokeColor=#000000;fillColor=#FFFFFF;fontColor=#000000;align=center;" vertex="1" parent="mqaMaVXwd7UdxDIL51V4-2">
          <mxGeometry x="625" y="140" width="145" height="130" as="geometry" />
        </mxCell>
        <mxCell id="mqaMaVXwd7UdxDIL51V4-13" value="+ Add Class" style="rounded=0;whiteSpace=wrap;html=1;strokeColor=#000000;fillColor=#FFFFFF;fontColor=#000000;align=center;" vertex="1" parent="mqaMaVXwd7UdxDIL51V4-2">
          <mxGeometry x="195" y="340" width="145" height="140" as="geometry" />
        </mxCell>
        <mxCell id="mqaMaVXwd7UdxDIL51V4-8" value="Test Library" style="rounded=0;whiteSpace=wrap;html=1;align=center;" vertex="1" parent="mqaMaVXwd7UdxDIL51V4-2">
          <mxGeometry y="270" width="140" height="60" as="geometry" />
        </mxCell>
      </root>
    </mxGraphModel>
  </diagram>
  <diagram id="-IdTEijpF7JJoyXO5O9i" name="class (teacher)">
    <mxGraphModel dx="1117" dy="624" grid="1" gridSize="10" guides="1" tooltips="1" connect="1" arrows="1" fold="1" page="1" pageScale="1" pageWidth="850" pageHeight="1100" math="0" shadow="0">
      <root>
        <mxCell id="6GjD4yjZiHRV2dLLMy3h-0" />
        <mxCell id="6GjD4yjZiHRV2dLLMy3h-1" parent="6GjD4yjZiHRV2dLLMy3h-0" />
        <mxCell id="SnEIgmXQw2gwBDCwhYLD-0" value="&#xa;&#xa;&lt;span style=&quot;color: rgb(0, 0, 0); font-family: helvetica; font-size: 12px; font-style: normal; font-weight: 400; letter-spacing: normal; text-align: center; text-indent: 0px; text-transform: none; word-spacing: 0px; background-color: rgb(248, 249, 250); display: inline; float: none;&quot;&gt;History&lt;/span&gt;&#xa;&#xa;" style="strokeWidth=1;shadow=0;dashed=0;align=left;html=1;shape=mxgraph.mockup.containers.browserWindow;rSize=0;strokeColor=#666666;strokeColor2=#008cff;strokeColor3=#c4c4c4;mainText=,;recursiveResize=0;fillColor=#FFFFFF;fontColor=#000000;" vertex="1" parent="6GjD4yjZiHRV2dLLMy3h-1">
          <mxGeometry x="15" y="240" width="795" height="580" as="geometry" />
        </mxCell>
        <mxCell id="SnEIgmXQw2gwBDCwhYLD-1" value="Page 1" style="strokeWidth=1;shadow=0;dashed=0;align=center;html=1;shape=mxgraph.mockup.containers.anchor;fontSize=17;fontColor=#666666;align=left;" vertex="1" parent="SnEIgmXQw2gwBDCwhYLD-0">
          <mxGeometry x="60" y="12" width="110" height="26" as="geometry" />
        </mxCell>
        <mxCell id="SnEIgmXQw2gwBDCwhYLD-2" value="https://www..../teacher/#studentlist/classa" style="strokeWidth=1;shadow=0;dashed=0;align=center;html=1;shape=mxgraph.mockup.containers.anchor;rSize=0;fontSize=17;fontColor=#666666;align=left;" vertex="1" parent="SnEIgmXQw2gwBDCwhYLD-0">
          <mxGeometry x="130" y="60" width="250" height="26" as="geometry" />
        </mxCell>
        <mxCell id="SnEIgmXQw2gwBDCwhYLD-64" value="" style="shape=table;html=1;whiteSpace=wrap;startSize=0;container=1;collapsible=0;childLayout=tableLayout;" vertex="1" parent="SnEIgmXQw2gwBDCwhYLD-0">
          <mxGeometry x="170" y="230" width="575" height="220" as="geometry" />
        </mxCell>
        <mxCell id="SnEIgmXQw2gwBDCwhYLD-65" value="" style="shape=partialRectangle;html=1;whiteSpace=wrap;collapsible=0;dropTarget=0;pointerEvents=0;fillColor=none;top=0;left=0;bottom=0;right=0;points=[[0,0.5],[1,0.5]];portConstraint=eastwest;" vertex="1" parent="SnEIgmXQw2gwBDCwhYLD-64">
          <mxGeometry width="575" height="60" as="geometry" />
        </mxCell>
        <mxCell id="SnEIgmXQw2gwBDCwhYLD-66" value="" style="shape=partialRectangle;html=1;whiteSpace=wrap;connectable=0;overflow=hidden;fillColor=none;top=0;left=0;bottom=0;right=0;" vertex="1" parent="SnEIgmXQw2gwBDCwhYLD-65">
          <mxGeometry width="45" height="60" as="geometry" />
        </mxCell>
        <mxCell id="SnEIgmXQw2gwBDCwhYLD-67" value="Student ID" style="shape=partialRectangle;html=1;whiteSpace=wrap;connectable=0;overflow=hidden;fillColor=none;top=0;left=0;bottom=0;right=0;" vertex="1" parent="SnEIgmXQw2gwBDCwhYLD-65">
          <mxGeometry x="45" width="90" height="60" as="geometry" />
        </mxCell>
        <mxCell id="SnEIgmXQw2gwBDCwhYLD-68" value="Full Name" style="shape=partialRectangle;html=1;whiteSpace=wrap;connectable=0;overflow=hidden;fillColor=none;top=0;left=0;bottom=0;right=0;" vertex="1" parent="SnEIgmXQw2gwBDCwhYLD-65">
          <mxGeometry x="135" width="230" height="60" as="geometry" />
        </mxCell>
        <mxCell id="SnEIgmXQw2gwBDCwhYLD-69" value="Total score" style="shape=partialRectangle;html=1;whiteSpace=wrap;connectable=0;overflow=hidden;fillColor=none;top=0;left=0;bottom=0;right=0;" vertex="1" parent="SnEIgmXQw2gwBDCwhYLD-65">
          <mxGeometry x="365" width="110" height="60" as="geometry" />
        </mxCell>
        <mxCell id="SnEIgmXQw2gwBDCwhYLD-70" value="Mention" style="shape=partialRectangle;html=1;whiteSpace=wrap;connectable=0;overflow=hidden;fillColor=none;top=0;left=0;bottom=0;right=0;" vertex="1" parent="SnEIgmXQw2gwBDCwhYLD-65">
          <mxGeometry x="475" width="100" height="60" as="geometry" />
        </mxCell>
        <mxCell id="SnEIgmXQw2gwBDCwhYLD-71" value="" style="shape=partialRectangle;html=1;whiteSpace=wrap;collapsible=0;dropTarget=0;pointerEvents=0;fillColor=none;top=0;left=0;bottom=0;right=0;points=[[0,0.5],[1,0.5]];portConstraint=eastwest;" vertex="1" parent="SnEIgmXQw2gwBDCwhYLD-64">
          <mxGeometry y="60" width="575" height="40" as="geometry" />
        </mxCell>
        <mxCell id="SnEIgmXQw2gwBDCwhYLD-72" value="1" style="shape=partialRectangle;html=1;whiteSpace=wrap;connectable=0;overflow=hidden;fillColor=none;top=0;left=0;bottom=0;right=0;" vertex="1" parent="SnEIgmXQw2gwBDCwhYLD-71">
          <mxGeometry width="45" height="40" as="geometry" />
        </mxCell>
        <mxCell id="SnEIgmXQw2gwBDCwhYLD-73" value="1234" style="shape=partialRectangle;html=1;whiteSpace=wrap;connectable=0;overflow=hidden;fillColor=none;top=0;left=0;bottom=0;right=0;" vertex="1" parent="SnEIgmXQw2gwBDCwhYLD-71">
          <mxGeometry x="45" width="90" height="40" as="geometry" />
        </mxCell>
        <mxCell id="SnEIgmXQw2gwBDCwhYLD-74" value="" style="shape=partialRectangle;html=1;whiteSpace=wrap;connectable=0;overflow=hidden;fillColor=none;top=0;left=0;bottom=0;right=0;" vertex="1" parent="SnEIgmXQw2gwBDCwhYLD-71">
          <mxGeometry x="135" width="230" height="40" as="geometry" />
        </mxCell>
        <mxCell id="SnEIgmXQw2gwBDCwhYLD-75" value="" style="shape=partialRectangle;html=1;whiteSpace=wrap;connectable=0;overflow=hidden;fillColor=none;top=0;left=0;bottom=0;right=0;" vertex="1" parent="SnEIgmXQw2gwBDCwhYLD-71">
          <mxGeometry x="365" width="110" height="40" as="geometry" />
        </mxCell>
        <mxCell id="SnEIgmXQw2gwBDCwhYLD-76" value="" style="shape=partialRectangle;html=1;whiteSpace=wrap;connectable=0;overflow=hidden;fillColor=none;top=0;left=0;bottom=0;right=0;" vertex="1" parent="SnEIgmXQw2gwBDCwhYLD-71">
          <mxGeometry x="475" width="100" height="40" as="geometry" />
        </mxCell>
        <mxCell id="SnEIgmXQw2gwBDCwhYLD-77" value="" style="shape=partialRectangle;html=1;whiteSpace=wrap;collapsible=0;dropTarget=0;pointerEvents=0;fillColor=none;top=0;left=0;bottom=0;right=0;points=[[0,0.5],[1,0.5]];portConstraint=eastwest;" vertex="1" parent="SnEIgmXQw2gwBDCwhYLD-64">
          <mxGeometry y="100" width="575" height="40" as="geometry" />
        </mxCell>
        <mxCell id="SnEIgmXQw2gwBDCwhYLD-78" value="2" style="shape=partialRectangle;html=1;whiteSpace=wrap;connectable=0;overflow=hidden;fillColor=none;top=0;left=0;bottom=0;right=0;" vertex="1" parent="SnEIgmXQw2gwBDCwhYLD-77">
          <mxGeometry width="45" height="40" as="geometry" />
        </mxCell>
        <mxCell id="SnEIgmXQw2gwBDCwhYLD-79" value="1235" style="shape=partialRectangle;html=1;whiteSpace=wrap;connectable=0;overflow=hidden;fillColor=none;top=0;left=0;bottom=0;right=0;" vertex="1" parent="SnEIgmXQw2gwBDCwhYLD-77">
          <mxGeometry x="45" width="90" height="40" as="geometry" />
        </mxCell>
        <mxCell id="SnEIgmXQw2gwBDCwhYLD-80" value="" style="shape=partialRectangle;html=1;whiteSpace=wrap;connectable=0;overflow=hidden;fillColor=none;top=0;left=0;bottom=0;right=0;" vertex="1" parent="SnEIgmXQw2gwBDCwhYLD-77">
          <mxGeometry x="135" width="230" height="40" as="geometry" />
        </mxCell>
        <mxCell id="SnEIgmXQw2gwBDCwhYLD-81" value="" style="shape=partialRectangle;html=1;whiteSpace=wrap;connectable=0;overflow=hidden;fillColor=none;top=0;left=0;bottom=0;right=0;" vertex="1" parent="SnEIgmXQw2gwBDCwhYLD-77">
          <mxGeometry x="365" width="110" height="40" as="geometry" />
        </mxCell>
        <mxCell id="SnEIgmXQw2gwBDCwhYLD-82" value="" style="shape=partialRectangle;html=1;whiteSpace=wrap;connectable=0;overflow=hidden;fillColor=none;top=0;left=0;bottom=0;right=0;" vertex="1" parent="SnEIgmXQw2gwBDCwhYLD-77">
          <mxGeometry x="475" width="100" height="40" as="geometry" />
        </mxCell>
        <mxCell id="SnEIgmXQw2gwBDCwhYLD-83" value="" style="shape=partialRectangle;html=1;whiteSpace=wrap;collapsible=0;dropTarget=0;pointerEvents=0;fillColor=none;top=0;left=0;bottom=0;right=0;points=[[0,0.5],[1,0.5]];portConstraint=eastwest;" vertex="1" parent="SnEIgmXQw2gwBDCwhYLD-64">
          <mxGeometry y="140" width="575" height="40" as="geometry" />
        </mxCell>
        <mxCell id="SnEIgmXQw2gwBDCwhYLD-84" value="..." style="shape=partialRectangle;html=1;whiteSpace=wrap;connectable=0;overflow=hidden;fillColor=none;top=0;left=0;bottom=0;right=0;" vertex="1" parent="SnEIgmXQw2gwBDCwhYLD-83">
          <mxGeometry width="45" height="40" as="geometry" />
        </mxCell>
        <mxCell id="SnEIgmXQw2gwBDCwhYLD-85" value="..." style="shape=partialRectangle;html=1;whiteSpace=wrap;connectable=0;overflow=hidden;fillColor=none;top=0;left=0;bottom=0;right=0;" vertex="1" parent="SnEIgmXQw2gwBDCwhYLD-83">
          <mxGeometry x="45" width="90" height="40" as="geometry" />
        </mxCell>
        <mxCell id="SnEIgmXQw2gwBDCwhYLD-86" value="" style="shape=partialRectangle;html=1;whiteSpace=wrap;connectable=0;overflow=hidden;fillColor=none;top=0;left=0;bottom=0;right=0;" vertex="1" parent="SnEIgmXQw2gwBDCwhYLD-83">
          <mxGeometry x="135" width="230" height="40" as="geometry" />
        </mxCell>
        <mxCell id="SnEIgmXQw2gwBDCwhYLD-87" value="" style="shape=partialRectangle;html=1;whiteSpace=wrap;connectable=0;overflow=hidden;fillColor=none;top=0;left=0;bottom=0;right=0;" vertex="1" parent="SnEIgmXQw2gwBDCwhYLD-83">
          <mxGeometry x="365" width="110" height="40" as="geometry" />
        </mxCell>
        <mxCell id="SnEIgmXQw2gwBDCwhYLD-88" value="" style="shape=partialRectangle;html=1;whiteSpace=wrap;connectable=0;overflow=hidden;fillColor=none;top=0;left=0;bottom=0;right=0;" vertex="1" parent="SnEIgmXQw2gwBDCwhYLD-83">
          <mxGeometry x="475" width="100" height="40" as="geometry" />
        </mxCell>
        <mxCell id="SnEIgmXQw2gwBDCwhYLD-89" style="shape=partialRectangle;html=1;whiteSpace=wrap;collapsible=0;dropTarget=0;pointerEvents=0;fillColor=none;top=0;left=0;bottom=0;right=0;points=[[0,0.5],[1,0.5]];portConstraint=eastwest;" vertex="1" parent="SnEIgmXQw2gwBDCwhYLD-64">
          <mxGeometry y="180" width="575" height="40" as="geometry" />
        </mxCell>
        <mxCell id="SnEIgmXQw2gwBDCwhYLD-90" style="shape=partialRectangle;html=1;whiteSpace=wrap;connectable=0;overflow=hidden;fillColor=none;top=0;left=0;bottom=0;right=0;" vertex="1" parent="SnEIgmXQw2gwBDCwhYLD-89">
          <mxGeometry width="45" height="40" as="geometry" />
        </mxCell>
        <mxCell id="SnEIgmXQw2gwBDCwhYLD-91" value="" style="shape=partialRectangle;html=1;whiteSpace=wrap;connectable=0;overflow=hidden;fillColor=none;top=0;left=0;bottom=0;right=0;" vertex="1" parent="SnEIgmXQw2gwBDCwhYLD-89">
          <mxGeometry x="45" width="90" height="40" as="geometry" />
        </mxCell>
        <mxCell id="SnEIgmXQw2gwBDCwhYLD-92" style="shape=partialRectangle;html=1;whiteSpace=wrap;connectable=0;overflow=hidden;fillColor=none;top=0;left=0;bottom=0;right=0;" vertex="1" parent="SnEIgmXQw2gwBDCwhYLD-89">
          <mxGeometry x="135" width="230" height="40" as="geometry" />
        </mxCell>
        <mxCell id="SnEIgmXQw2gwBDCwhYLD-93" style="shape=partialRectangle;html=1;whiteSpace=wrap;connectable=0;overflow=hidden;fillColor=none;top=0;left=0;bottom=0;right=0;" vertex="1" parent="SnEIgmXQw2gwBDCwhYLD-89">
          <mxGeometry x="365" width="110" height="40" as="geometry" />
        </mxCell>
        <mxCell id="SnEIgmXQw2gwBDCwhYLD-94" style="shape=partialRectangle;html=1;whiteSpace=wrap;connectable=0;overflow=hidden;fillColor=none;top=0;left=0;bottom=0;right=0;" vertex="1" parent="SnEIgmXQw2gwBDCwhYLD-89">
          <mxGeometry x="475" width="100" height="40" as="geometry" />
        </mxCell>
        <mxCell id="SnEIgmXQw2gwBDCwhYLD-3" value="&#xa;&#xa;&lt;span style=&quot;color: rgb(0, 0, 0); font-family: helvetica; font-size: 12px; font-style: normal; font-weight: 400; letter-spacing: normal; text-align: center; text-indent: 0px; text-transform: none; word-spacing: 0px; background-color: rgb(248, 249, 250); display: inline; float: none;&quot;&gt;History&lt;/span&gt;&#xa;&#xa;" style="rounded=0;whiteSpace=wrap;html=1;strokeColor=#000000;fillColor=#FFFFFF;fontColor=#000000;align=left;" vertex="1" parent="SnEIgmXQw2gwBDCwhYLD-0">
          <mxGeometry y="110" width="140" height="470" as="geometry" />
        </mxCell>
        <mxCell id="SnEIgmXQw2gwBDCwhYLD-4" value="avatar" style="ellipse;whiteSpace=wrap;html=1;aspect=fixed;strokeColor=#000000;fillColor=#FFFFFF;fontColor=#000000;align=center;" vertex="1" parent="SnEIgmXQw2gwBDCwhYLD-0">
          <mxGeometry x="40" y="120" width="60" height="60" as="geometry" />
        </mxCell>
        <mxCell id="SnEIgmXQw2gwBDCwhYLD-5" value="Name" style="text;html=1;strokeColor=none;fillColor=none;align=center;verticalAlign=middle;whiteSpace=wrap;rounded=0;fontColor=#000000;" vertex="1" parent="SnEIgmXQw2gwBDCwhYLD-0">
          <mxGeometry x="50" y="190" width="40" height="20" as="geometry" />
        </mxCell>
        <mxCell id="SnEIgmXQw2gwBDCwhYLD-6" value="Student List" style="rounded=0;whiteSpace=wrap;html=1;strokeColor=#b85450;fillColor=#f8cecc;align=center;" vertex="1" parent="SnEIgmXQw2gwBDCwhYLD-0">
          <mxGeometry y="330" width="140" height="60" as="geometry" />
        </mxCell>
        <mxCell id="SnEIgmXQw2gwBDCwhYLD-11" value="Test Library" style="rounded=0;whiteSpace=wrap;html=1;align=center;" vertex="1" parent="SnEIgmXQw2gwBDCwhYLD-0">
          <mxGeometry y="270" width="140" height="60" as="geometry" />
        </mxCell>
        <mxCell id="SnEIgmXQw2gwBDCwhYLD-12" value="&lt;font style=&quot;font-size: 20px&quot;&gt;Class A&lt;/font&gt;" style="text;html=1;strokeColor=none;fillColor=none;align=center;verticalAlign=middle;whiteSpace=wrap;rounded=0;fontColor=#000000;fontStyle=1" vertex="1" parent="SnEIgmXQw2gwBDCwhYLD-0">
          <mxGeometry x="170" y="130" width="85" height="20" as="geometry" />
        </mxCell>
        <mxCell id="SnEIgmXQw2gwBDCwhYLD-100" value="Edit&amp;nbsp;" style="strokeWidth=1;shadow=0;dashed=0;align=center;html=1;shape=mxgraph.mockup.buttons.button;mainText=;buttonStyle=round;fontSize=17;fontStyle=1;whiteSpace=wrap;" vertex="1" parent="SnEIgmXQw2gwBDCwhYLD-0">
          <mxGeometry x="645" y="180" width="100" height="30" as="geometry" />
        </mxCell>
      </root>
    </mxGraphModel>
  </diagram>
  <diagram id="nbjuPWCxK6NakgYbAFua" name="create class (teacher)">
    <mxGraphModel dx="920" dy="514" grid="1" gridSize="10" guides="1" tooltips="1" connect="1" arrows="1" fold="1" page="1" pageScale="1" pageWidth="850" pageHeight="1100" math="0" shadow="0">
      <root>
        <mxCell id="xwHJfgkRyXGQbBdNgJjG-0" />
        <mxCell id="xwHJfgkRyXGQbBdNgJjG-1" parent="xwHJfgkRyXGQbBdNgJjG-0" />
        <mxCell id="H9MyRRgIKN6xw4Dy4W8v-0" value="&#xa;&#xa;&lt;span style=&quot;color: rgb(0, 0, 0); font-family: helvetica; font-size: 12px; font-style: normal; font-weight: 400; letter-spacing: normal; text-align: center; text-indent: 0px; text-transform: none; word-spacing: 0px; background-color: rgb(248, 249, 250); display: inline; float: none;&quot;&gt;History&lt;/span&gt;&#xa;&#xa;" style="strokeWidth=1;shadow=0;dashed=0;align=left;html=1;shape=mxgraph.mockup.containers.browserWindow;rSize=0;strokeColor=#666666;strokeColor2=#008cff;strokeColor3=#c4c4c4;mainText=,;recursiveResize=0;fillColor=#FFFFFF;fontColor=#000000;" vertex="1" parent="xwHJfgkRyXGQbBdNgJjG-1">
          <mxGeometry x="15" y="240" width="765" height="580" as="geometry" />
        </mxCell>
        <mxCell id="H9MyRRgIKN6xw4Dy4W8v-1" value="Page 1" style="strokeWidth=1;shadow=0;dashed=0;align=center;html=1;shape=mxgraph.mockup.containers.anchor;fontSize=17;fontColor=#666666;align=left;" vertex="1" parent="H9MyRRgIKN6xw4Dy4W8v-0">
          <mxGeometry x="60" y="12" width="110" height="26" as="geometry" />
        </mxCell>
        <mxCell id="H9MyRRgIKN6xw4Dy4W8v-2" value="https://www..../teacher/#studentlist/new" style="strokeWidth=1;shadow=0;dashed=0;align=center;html=1;shape=mxgraph.mockup.containers.anchor;rSize=0;fontSize=17;fontColor=#666666;align=left;" vertex="1" parent="H9MyRRgIKN6xw4Dy4W8v-0">
          <mxGeometry x="130" y="60" width="250" height="26" as="geometry" />
        </mxCell>
        <mxCell id="H9MyRRgIKN6xw4Dy4W8v-3" value="" style="shape=table;html=1;whiteSpace=wrap;startSize=0;container=1;collapsible=0;childLayout=tableLayout;" vertex="1" parent="H9MyRRgIKN6xw4Dy4W8v-0">
          <mxGeometry x="170" y="230" width="550" height="220" as="geometry" />
        </mxCell>
        <mxCell id="H9MyRRgIKN6xw4Dy4W8v-4" value="" style="shape=partialRectangle;html=1;whiteSpace=wrap;collapsible=0;dropTarget=0;pointerEvents=0;fillColor=none;top=0;left=0;bottom=0;right=0;points=[[0,0.5],[1,0.5]];portConstraint=eastwest;" vertex="1" parent="H9MyRRgIKN6xw4Dy4W8v-3">
          <mxGeometry width="550" height="60" as="geometry" />
        </mxCell>
        <mxCell id="H9MyRRgIKN6xw4Dy4W8v-5" value="" style="shape=partialRectangle;html=1;whiteSpace=wrap;connectable=0;overflow=hidden;fillColor=none;top=0;left=0;bottom=0;right=0;" vertex="1" parent="H9MyRRgIKN6xw4Dy4W8v-4">
          <mxGeometry width="52" height="60" as="geometry" />
        </mxCell>
        <mxCell id="H9MyRRgIKN6xw4Dy4W8v-7" value="Full Name" style="shape=partialRectangle;html=1;whiteSpace=wrap;connectable=0;overflow=hidden;fillColor=none;top=0;left=0;bottom=0;right=0;" vertex="1" parent="H9MyRRgIKN6xw4Dy4W8v-4">
          <mxGeometry x="52" width="498" height="60" as="geometry" />
        </mxCell>
        <mxCell id="H9MyRRgIKN6xw4Dy4W8v-10" value="" style="shape=partialRectangle;html=1;whiteSpace=wrap;collapsible=0;dropTarget=0;pointerEvents=0;fillColor=none;top=0;left=0;bottom=0;right=0;points=[[0,0.5],[1,0.5]];portConstraint=eastwest;" vertex="1" parent="H9MyRRgIKN6xw4Dy4W8v-3">
          <mxGeometry y="60" width="550" height="40" as="geometry" />
        </mxCell>
        <mxCell id="H9MyRRgIKN6xw4Dy4W8v-11" value="1" style="shape=partialRectangle;html=1;whiteSpace=wrap;connectable=0;overflow=hidden;fillColor=none;top=0;left=0;bottom=0;right=0;" vertex="1" parent="H9MyRRgIKN6xw4Dy4W8v-10">
          <mxGeometry width="52" height="40" as="geometry" />
        </mxCell>
        <mxCell id="H9MyRRgIKN6xw4Dy4W8v-13" value="" style="shape=partialRectangle;html=1;whiteSpace=wrap;connectable=0;overflow=hidden;fillColor=none;top=0;left=0;bottom=0;right=0;" vertex="1" parent="H9MyRRgIKN6xw4Dy4W8v-10">
          <mxGeometry x="52" width="498" height="40" as="geometry" />
        </mxCell>
        <mxCell id="H9MyRRgIKN6xw4Dy4W8v-16" value="" style="shape=partialRectangle;html=1;whiteSpace=wrap;collapsible=0;dropTarget=0;pointerEvents=0;fillColor=none;top=0;left=0;bottom=0;right=0;points=[[0,0.5],[1,0.5]];portConstraint=eastwest;" vertex="1" parent="H9MyRRgIKN6xw4Dy4W8v-3">
          <mxGeometry y="100" width="550" height="40" as="geometry" />
        </mxCell>
        <mxCell id="H9MyRRgIKN6xw4Dy4W8v-17" value="2" style="shape=partialRectangle;html=1;whiteSpace=wrap;connectable=0;overflow=hidden;fillColor=none;top=0;left=0;bottom=0;right=0;" vertex="1" parent="H9MyRRgIKN6xw4Dy4W8v-16">
          <mxGeometry width="52" height="40" as="geometry" />
        </mxCell>
        <mxCell id="H9MyRRgIKN6xw4Dy4W8v-19" value="" style="shape=partialRectangle;html=1;whiteSpace=wrap;connectable=0;overflow=hidden;fillColor=none;top=0;left=0;bottom=0;right=0;" vertex="1" parent="H9MyRRgIKN6xw4Dy4W8v-16">
          <mxGeometry x="52" width="498" height="40" as="geometry" />
        </mxCell>
        <mxCell id="H9MyRRgIKN6xw4Dy4W8v-22" value="" style="shape=partialRectangle;html=1;whiteSpace=wrap;collapsible=0;dropTarget=0;pointerEvents=0;fillColor=none;top=0;left=0;bottom=0;right=0;points=[[0,0.5],[1,0.5]];portConstraint=eastwest;" vertex="1" parent="H9MyRRgIKN6xw4Dy4W8v-3">
          <mxGeometry y="140" width="550" height="40" as="geometry" />
        </mxCell>
        <mxCell id="H9MyRRgIKN6xw4Dy4W8v-23" value="..." style="shape=partialRectangle;html=1;whiteSpace=wrap;connectable=0;overflow=hidden;fillColor=none;top=0;left=0;bottom=0;right=0;" vertex="1" parent="H9MyRRgIKN6xw4Dy4W8v-22">
          <mxGeometry width="52" height="40" as="geometry" />
        </mxCell>
        <mxCell id="H9MyRRgIKN6xw4Dy4W8v-25" value="" style="shape=partialRectangle;html=1;whiteSpace=wrap;connectable=0;overflow=hidden;fillColor=none;top=0;left=0;bottom=0;right=0;" vertex="1" parent="H9MyRRgIKN6xw4Dy4W8v-22">
          <mxGeometry x="52" width="498" height="40" as="geometry" />
        </mxCell>
        <mxCell id="H9MyRRgIKN6xw4Dy4W8v-28" style="shape=partialRectangle;html=1;whiteSpace=wrap;collapsible=0;dropTarget=0;pointerEvents=0;fillColor=none;top=0;left=0;bottom=0;right=0;points=[[0,0.5],[1,0.5]];portConstraint=eastwest;" vertex="1" parent="H9MyRRgIKN6xw4Dy4W8v-3">
          <mxGeometry y="180" width="550" height="40" as="geometry" />
        </mxCell>
        <mxCell id="H9MyRRgIKN6xw4Dy4W8v-29" style="shape=partialRectangle;html=1;whiteSpace=wrap;connectable=0;overflow=hidden;fillColor=none;top=0;left=0;bottom=0;right=0;" vertex="1" parent="H9MyRRgIKN6xw4Dy4W8v-28">
          <mxGeometry width="52" height="40" as="geometry" />
        </mxCell>
        <mxCell id="H9MyRRgIKN6xw4Dy4W8v-31" style="shape=partialRectangle;html=1;whiteSpace=wrap;connectable=0;overflow=hidden;fillColor=none;top=0;left=0;bottom=0;right=0;" vertex="1" parent="H9MyRRgIKN6xw4Dy4W8v-28">
          <mxGeometry x="52" width="498" height="40" as="geometry" />
        </mxCell>
        <mxCell id="H9MyRRgIKN6xw4Dy4W8v-34" value="&#xa;&#xa;&lt;span style=&quot;color: rgb(0, 0, 0); font-family: helvetica; font-size: 12px; font-style: normal; font-weight: 400; letter-spacing: normal; text-align: center; text-indent: 0px; text-transform: none; word-spacing: 0px; background-color: rgb(248, 249, 250); display: inline; float: none;&quot;&gt;History&lt;/span&gt;&#xa;&#xa;" style="rounded=0;whiteSpace=wrap;html=1;strokeColor=#000000;fillColor=#FFFFFF;fontColor=#000000;align=left;" vertex="1" parent="H9MyRRgIKN6xw4Dy4W8v-0">
          <mxGeometry y="110" width="140" height="470" as="geometry" />
        </mxCell>
        <mxCell id="H9MyRRgIKN6xw4Dy4W8v-35" value="avatar" style="ellipse;whiteSpace=wrap;html=1;aspect=fixed;strokeColor=#000000;fillColor=#FFFFFF;fontColor=#000000;align=center;" vertex="1" parent="H9MyRRgIKN6xw4Dy4W8v-0">
          <mxGeometry x="40" y="120" width="60" height="60" as="geometry" />
        </mxCell>
        <mxCell id="H9MyRRgIKN6xw4Dy4W8v-36" value="Name" style="text;html=1;strokeColor=none;fillColor=none;align=center;verticalAlign=middle;whiteSpace=wrap;rounded=0;fontColor=#000000;" vertex="1" parent="H9MyRRgIKN6xw4Dy4W8v-0">
          <mxGeometry x="50" y="190" width="40" height="20" as="geometry" />
        </mxCell>
        <mxCell id="H9MyRRgIKN6xw4Dy4W8v-37" value="Student List" style="rounded=0;whiteSpace=wrap;html=1;strokeColor=#b85450;fillColor=#f8cecc;align=center;" vertex="1" parent="H9MyRRgIKN6xw4Dy4W8v-0">
          <mxGeometry y="330" width="140" height="60" as="geometry" />
        </mxCell>
        <mxCell id="H9MyRRgIKN6xw4Dy4W8v-38" value="Test Library" style="rounded=0;whiteSpace=wrap;html=1;align=center;" vertex="1" parent="H9MyRRgIKN6xw4Dy4W8v-0">
          <mxGeometry y="270" width="140" height="60" as="geometry" />
        </mxCell>
        <mxCell id="H9MyRRgIKN6xw4Dy4W8v-39" value="&lt;font style=&quot;font-size: 20px&quot;&gt;Create New&amp;nbsp; Class&lt;/font&gt;" style="text;html=1;strokeColor=none;fillColor=none;align=left;verticalAlign=middle;whiteSpace=wrap;rounded=0;fontColor=#000000;fontStyle=1" vertex="1" parent="H9MyRRgIKN6xw4Dy4W8v-0">
          <mxGeometry x="170" y="130" width="200" height="20" as="geometry" />
        </mxCell>
        <mxCell id="l3QavuN66FdffOWwyzS6-0" value="Class name" style="text;html=1;strokeColor=none;fillColor=none;align=left;verticalAlign=middle;whiteSpace=wrap;rounded=0;fontSize=16;fontColor=#000000;" vertex="1" parent="H9MyRRgIKN6xw4Dy4W8v-0">
          <mxGeometry x="170" y="175" width="105" height="20" as="geometry" />
        </mxCell>
        <mxCell id="l3QavuN66FdffOWwyzS6-1" value="" style="rounded=1;whiteSpace=wrap;html=1;strokeColor=#000000;fillColor=#FFFFFF;fontSize=16;fontColor=#000000;align=left;" vertex="1" parent="H9MyRRgIKN6xw4Dy4W8v-0">
          <mxGeometry x="280" y="170" width="290" height="30" as="geometry" />
        </mxCell>
        <mxCell id="l3QavuN66FdffOWwyzS6-2" value="Save" style="strokeWidth=1;shadow=0;dashed=0;align=center;html=1;shape=mxgraph.mockup.buttons.button;mainText=;buttonStyle=round;fontSize=17;fontStyle=1;whiteSpace=wrap;" vertex="1" parent="H9MyRRgIKN6xw4Dy4W8v-0">
          <mxGeometry x="610" y="490" width="109" height="50" as="geometry" />
        </mxCell>
      </root>
    </mxGraphModel>
  </diagram>
  <diagram id="fyf_0QoqkWIKN0Rx-TdC" name="test (students)">
    <mxGraphModel dx="1303" dy="728" grid="1" gridSize="10" guides="1" tooltips="1" connect="1" arrows="1" fold="1" page="1" pageScale="1" pageWidth="850" pageHeight="1100" math="0" shadow="0">
      <root>
        <mxCell id="vBM3kM4mfKM4Y0Re5Tlh-0" />
        <mxCell id="vBM3kM4mfKM4Y0Re5Tlh-1" parent="vBM3kM4mfKM4Y0Re5Tlh-0" />
        <mxCell id="g6rSGPbejApbWorJZhuv-0" value="" style="strokeWidth=1;shadow=0;dashed=0;align=center;html=1;shape=mxgraph.mockup.containers.browserWindow;rSize=0;strokeColor=#666666;strokeColor2=#008cff;strokeColor3=#c4c4c4;mainText=,;recursiveResize=0;fillColor=#FFFFFF;fontSize=16;fontColor=#000000;" vertex="1" parent="vBM3kM4mfKM4Y0Re5Tlh-1">
          <mxGeometry x="10" y="40" width="820" height="580" as="geometry" />
        </mxCell>
        <mxCell id="g6rSGPbejApbWorJZhuv-1" value="Page 1" style="strokeWidth=1;shadow=0;dashed=0;align=center;html=1;shape=mxgraph.mockup.containers.anchor;fontSize=17;fontColor=#666666;align=left;" vertex="1" parent="g6rSGPbejApbWorJZhuv-0">
          <mxGeometry x="60" y="12" width="110" height="26" as="geometry" />
        </mxCell>
        <mxCell id="g6rSGPbejApbWorJZhuv-2" value="https://www.../student/test/quest1" style="strokeWidth=1;shadow=0;dashed=0;align=center;html=1;shape=mxgraph.mockup.containers.anchor;rSize=0;fontSize=17;fontColor=#666666;align=left;" vertex="1" parent="g6rSGPbejApbWorJZhuv-0">
          <mxGeometry x="130" y="60" width="250" height="26" as="geometry" />
        </mxCell>
        <mxCell id="g6rSGPbejApbWorJZhuv-3" value="&lt;span style=&quot;font-size: 25px&quot;&gt;Question?&lt;/span&gt;" style="text;html=1;strokeColor=none;fillColor=none;align=left;verticalAlign=middle;whiteSpace=wrap;rounded=0;fontSize=16;fontColor=#000000;" vertex="1" parent="g6rSGPbejApbWorJZhuv-0">
          <mxGeometry x="50" y="150" width="330" height="40" as="geometry" />
        </mxCell>
        <mxCell id="g6rSGPbejApbWorJZhuv-5" value="Description" style="rounded=0;whiteSpace=wrap;html=1;strokeColor=#000000;fillColor=#FFFFFF;fontSize=16;fontColor=#000000;align=center;dashed=1;" vertex="1" parent="g6rSGPbejApbWorJZhuv-0">
          <mxGeometry x="285" y="200" width="250" height="170" as="geometry" />
        </mxCell>
        <mxCell id="g6rSGPbejApbWorJZhuv-6" value="" style="rounded=1;whiteSpace=wrap;html=1;strokeColor=#000000;fillColor=#FFFFFF;fontSize=16;fontColor=#000000;align=center;" vertex="1" parent="g6rSGPbejApbWorJZhuv-0">
          <mxGeometry x="55" y="400" width="725" height="110" as="geometry" />
        </mxCell>
        <mxCell id="g6rSGPbejApbWorJZhuv-7" value="Time: ...minutes" style="text;html=1;strokeColor=none;fillColor=none;align=center;verticalAlign=middle;whiteSpace=wrap;rounded=0;fontSize=18;fontColor=#000000;" vertex="1" parent="g6rSGPbejApbWorJZhuv-0">
          <mxGeometry x="660" y="130" width="140" height="20" as="geometry" />
        </mxCell>
        <mxCell id="g6rSGPbejApbWorJZhuv-10" value="A" style="rounded=1;fillColor=#F0F2F5;strokeColor=#D8DCE3;align=left;verticalAlign=middle;fontStyle=0;fontSize=12;labelPosition=right;verticalLabelPosition=middle;spacingLeft=10;html=1;shadow=0;dashed=0" vertex="1" parent="g6rSGPbejApbWorJZhuv-0">
          <mxGeometry x="120" y="420" width="20" height="20" as="geometry" />
        </mxCell>
        <mxCell id="g6rSGPbejApbWorJZhuv-13" value="C" style="rounded=1;fillColor=#F0F2F5;strokeColor=#D8DCE3;align=left;verticalAlign=middle;fontStyle=0;fontSize=12;labelPosition=right;verticalLabelPosition=middle;spacingLeft=10;html=1;shadow=0;dashed=0" vertex="1" parent="g6rSGPbejApbWorJZhuv-0">
          <mxGeometry x="500" y="420" width="20" height="20" as="geometry" />
        </mxCell>
        <mxCell id="g6rSGPbejApbWorJZhuv-12" value="B" style="rounded=1;fillColor=#F0F2F5;strokeColor=#D8DCE3;align=left;verticalAlign=middle;fontStyle=0;fontSize=12;labelPosition=right;verticalLabelPosition=middle;spacingLeft=10;html=1;shadow=0;dashed=0" vertex="1" parent="g6rSGPbejApbWorJZhuv-0">
          <mxGeometry x="120" y="470" width="20" height="20" as="geometry" />
        </mxCell>
        <mxCell id="g6rSGPbejApbWorJZhuv-11" value="D" style="rounded=1;fillColor=#F0F2F5;strokeColor=#D8DCE3;align=left;verticalAlign=middle;fontStyle=0;fontSize=12;labelPosition=right;verticalLabelPosition=middle;spacingLeft=10;html=1;shadow=0;dashed=0" vertex="1" parent="g6rSGPbejApbWorJZhuv-0">
          <mxGeometry x="500" y="470" width="20" height="20" as="geometry" />
        </mxCell>
        <mxCell id="g6rSGPbejApbWorJZhuv-16" value="Next" style="strokeWidth=1;shadow=0;dashed=0;align=center;html=1;shape=mxgraph.mockup.buttons.button;strokeColor=#666666;fontColor=#ffffff;mainText=;buttonStyle=round;fontSize=17;fontStyle=1;fillColor=#008cff;whiteSpace=wrap;" vertex="1" parent="g6rSGPbejApbWorJZhuv-0">
          <mxGeometry x="660" y="530" width="120" height="30" as="geometry" />
        </mxCell>
      </root>
    </mxGraphModel>
  </diagram>
  <diagram id="dTllYKUWM5Tv-9XY744c" name="result (students)">
    <mxGraphModel dx="1564" dy="874" grid="1" gridSize="10" guides="1" tooltips="1" connect="1" arrows="1" fold="1" page="1" pageScale="1" pageWidth="850" pageHeight="1100" math="0" shadow="0">
      <root>
        <mxCell id="0At5xHrc9nUX2u8QUVtD-0" />
        <mxCell id="0At5xHrc9nUX2u8QUVtD-1" parent="0At5xHrc9nUX2u8QUVtD-0" />
        <mxCell id="btk0PT6szHJksJ2kevaY-0" value="" style="strokeWidth=1;shadow=0;dashed=0;align=center;html=1;shape=mxgraph.mockup.containers.browserWindow;rSize=0;strokeColor=#666666;strokeColor2=#008cff;strokeColor3=#c4c4c4;mainText=,;recursiveResize=0;fillColor=#FFFFFF;fontSize=18;fontColor=#000000;" vertex="1" parent="0At5xHrc9nUX2u8QUVtD-1">
          <mxGeometry x="10" y="40" width="830" height="570" as="geometry" />
        </mxCell>
        <mxCell id="btk0PT6szHJksJ2kevaY-1" value="Page 1" style="strokeWidth=1;shadow=0;dashed=0;align=center;html=1;shape=mxgraph.mockup.containers.anchor;fontSize=17;fontColor=#666666;align=left;" vertex="1" parent="btk0PT6szHJksJ2kevaY-0">
          <mxGeometry x="60" y="12" width="110" height="26" as="geometry" />
        </mxCell>
        <mxCell id="btk0PT6szHJksJ2kevaY-2" value="https://www..../student/test/result" style="strokeWidth=1;shadow=0;dashed=0;align=center;html=1;shape=mxgraph.mockup.containers.anchor;rSize=0;fontSize=17;fontColor=#666666;align=left;" vertex="1" parent="btk0PT6szHJksJ2kevaY-0">
          <mxGeometry x="130" y="60" width="250" height="26" as="geometry" />
        </mxCell>
        <mxCell id="btk0PT6szHJksJ2kevaY-3" value="&lt;span style=&quot;font-size: 25px&quot;&gt;&lt;b&gt;Correct Answers: 2/3&lt;/b&gt;&lt;/span&gt;" style="text;html=1;strokeColor=none;fillColor=none;align=center;verticalAlign=middle;whiteSpace=wrap;rounded=0;fontSize=18;fontColor=#000000;" vertex="1" parent="btk0PT6szHJksJ2kevaY-0">
          <mxGeometry x="263" y="140" width="305" height="20" as="geometry" />
        </mxCell>
        <mxCell id="btk0PT6szHJksJ2kevaY-4" value="" style="rounded=1;whiteSpace=wrap;html=1;strokeColor=#b85450;fillColor=#f8cecc;fontSize=18;align=center;" vertex="1" parent="btk0PT6szHJksJ2kevaY-0">
          <mxGeometry x="55" y="210" width="735" height="100" as="geometry" />
        </mxCell>
        <mxCell id="kQItXbRgGLmzCaU7huMD-0" value="Question?" style="text;html=1;strokeColor=none;fillColor=none;align=center;verticalAlign=middle;whiteSpace=wrap;rounded=0;fontSize=18;fontColor=#000000;" vertex="1" parent="btk0PT6szHJksJ2kevaY-0">
          <mxGeometry x="90" y="230" width="40" height="20" as="geometry" />
        </mxCell>
        <mxCell id="kQItXbRgGLmzCaU7huMD-1" value="" style="rounded=1;whiteSpace=wrap;html=1;strokeColor=#82b366;fillColor=#d5e8d4;fontSize=18;align=center;" vertex="1" parent="btk0PT6szHJksJ2kevaY-0">
          <mxGeometry x="55" y="320" width="735" height="100" as="geometry" />
        </mxCell>
        <mxCell id="kQItXbRgGLmzCaU7huMD-2" value="Question?" style="text;html=1;strokeColor=#82b366;fillColor=#d5e8d4;align=center;verticalAlign=middle;whiteSpace=wrap;rounded=0;fontSize=18;" vertex="1" parent="btk0PT6szHJksJ2kevaY-0">
          <mxGeometry x="95" y="340" width="40" height="20" as="geometry" />
        </mxCell>
        <mxCell id="kQItXbRgGLmzCaU7huMD-3" value="" style="rounded=1;whiteSpace=wrap;html=1;strokeColor=#82b366;fillColor=#d5e8d4;fontSize=18;align=center;" vertex="1" parent="btk0PT6szHJksJ2kevaY-0">
          <mxGeometry x="55" y="430" width="735" height="100" as="geometry" />
        </mxCell>
        <mxCell id="kQItXbRgGLmzCaU7huMD-4" value="Question?" style="text;html=1;strokeColor=#82b366;fillColor=#d5e8d4;align=center;verticalAlign=middle;whiteSpace=wrap;rounded=0;fontSize=18;" vertex="1" parent="btk0PT6szHJksJ2kevaY-0">
          <mxGeometry x="90" y="450" width="40" height="20" as="geometry" />
        </mxCell>
      </root>
    </mxGraphModel>
  </diagram>
</mxfile>
